<?xml version="1.0" encoding="utf-8" standalone="no"?>
<!DOCTYPE svg PUBLIC "-//W3C//DTD SVG 1.1//EN"
  "http://www.w3.org/Graphics/SVG/1.1/DTD/svg11.dtd">
<svg xmlns:xlink="http://www.w3.org/1999/xlink" width="624.189375pt" height="300.127031pt" viewBox="0 0 624.189375 300.127031" xmlns="http://www.w3.org/2000/svg" version="1.1">
 <metadata>
  <rdf:RDF xmlns:dc="http://purl.org/dc/elements/1.1/" xmlns:cc="http://creativecommons.org/ns#" xmlns:rdf="http://www.w3.org/1999/02/22-rdf-syntax-ns#">
   <cc:Work>
    <dc:type rdf:resource="http://purl.org/dc/dcmitype/StillImage"/>
    <dc:date>2025-12-11T23:29:32.255055</dc:date>
    <dc:format>image/svg+xml</dc:format>
    <dc:creator>
     <cc:Agent>
      <dc:title>Matplotlib v3.10.6, https://matplotlib.org/</dc:title>
     </cc:Agent>
    </dc:creator>
   </cc:Work>
  </rdf:RDF>
 </metadata>
 <defs>
  <style type="text/css">*{stroke-linejoin: round; stroke-linecap: butt}</style>
 </defs>
 <g id="figure_1">
  <g id="patch_1">
   <path d="M 0 300.127031 
L 624.189375 300.127031 
L 624.189375 0 
L 0 0 
z
" style="fill: #ffffff"/>
  </g>
  <g id="axes_1">
   <g id="patch_2">
    <path d="M 98.109375 249.0375 
L 616.989375 249.0375 
L 616.989375 7.2 
L 98.109375 7.2 
z
" style="fill: #ffffff"/>
   </g>
   <g id="matplotlib.axis_1">
    <g id="xtick_1">
     <g id="line2d_1">
      <defs>
       <path id="mc5262ff0e0" d="M 0 0 
L 0 3 
" style="stroke: #262626; stroke-width: 0.5"/>
      </defs>
      <g>
       <use xlink:href="#mc5262ff0e0" x="98.109375" y="249.0375" style="fill: #262626; stroke: #262626; stroke-width: 0.5"/>
      </g>
     </g>
     <g id="text_1">
      <!-- 0 -->
      <g style="fill: #262626" transform="translate(92.860313 268.074922) scale(0.165 -0.165)">
       <defs>
        <path id="DejaVuSerif-30" d="M 2034 219 
Q 2513 219 2750 744 
Q 2988 1269 2988 2328 
Q 2988 3391 2750 3916 
Q 2513 4441 2034 4441 
Q 1556 4441 1318 3916 
Q 1081 3391 1081 2328 
Q 1081 1269 1318 744 
Q 1556 219 2034 219 
z
M 2034 -91 
Q 1275 -91 848 546 
Q 422 1184 422 2328 
Q 422 3475 848 4112 
Q 1275 4750 2034 4750 
Q 2797 4750 3222 4112 
Q 3647 3475 3647 2328 
Q 3647 1184 3222 546 
Q 2797 -91 2034 -91 
z
" transform="scale(0.015625)"/>
       </defs>
       <use xlink:href="#DejaVuSerif-30"/>
      </g>
     </g>
    </g>
    <g id="xtick_2">
     <g id="line2d_2">
      <g>
       <use xlink:href="#mc5262ff0e0" x="158.345966" y="249.0375" style="fill: #262626; stroke: #262626; stroke-width: 0.5"/>
      </g>
     </g>
     <g id="text_2">
      <!-- 25000 -->
      <g style="fill: #262626" transform="translate(132.100653 268.074922) scale(0.165 -0.165)">
       <defs>
        <path id="DejaVuSerif-32" d="M 819 3553 
L 469 3553 
L 469 4384 
Q 803 4563 1142 4656 
Q 1481 4750 1806 4750 
Q 2534 4750 2956 4397 
Q 3378 4044 3378 3438 
Q 3378 2753 2422 1800 
Q 2347 1728 2309 1691 
L 1131 513 
L 3078 513 
L 3078 1088 
L 3444 1088 
L 3444 0 
L 434 0 
L 434 341 
L 1850 1753 
Q 2319 2222 2519 2614 
Q 2719 3006 2719 3438 
Q 2719 3909 2473 4175 
Q 2228 4441 1797 4441 
Q 1350 4441 1106 4219 
Q 863 3997 819 3553 
z
" transform="scale(0.015625)"/>
        <path id="DejaVuSerif-35" d="M 3219 4666 
L 3219 4153 
L 1081 4153 
L 1081 2816 
Q 1244 2928 1461 2984 
Q 1678 3041 1947 3041 
Q 2703 3041 3140 2622 
Q 3578 2203 3578 1478 
Q 3578 738 3136 323 
Q 2694 -91 1894 -91 
Q 1572 -91 1234 -12 
Q 897 66 544 225 
L 544 1131 
L 897 1131 
Q 925 688 1179 453 
Q 1434 219 1894 219 
Q 2388 219 2653 544 
Q 2919 869 2919 1478 
Q 2919 2084 2655 2407 
Q 2391 2731 1894 2731 
Q 1613 2731 1398 2631 
Q 1184 2531 1019 2322 
L 750 2322 
L 750 4666 
L 3219 4666 
z
" transform="scale(0.015625)"/>
       </defs>
       <use xlink:href="#DejaVuSerif-32"/>
       <use xlink:href="#DejaVuSerif-35" transform="translate(63.623047 0)"/>
       <use xlink:href="#DejaVuSerif-30" transform="translate(127.246094 0)"/>
       <use xlink:href="#DejaVuSerif-30" transform="translate(190.869141 0)"/>
       <use xlink:href="#DejaVuSerif-30" transform="translate(254.492188 0)"/>
      </g>
     </g>
    </g>
    <g id="xtick_3">
     <g id="line2d_3">
      <g>
       <use xlink:href="#mc5262ff0e0" x="218.582557" y="249.0375" style="fill: #262626; stroke: #262626; stroke-width: 0.5"/>
      </g>
     </g>
     <g id="text_3">
      <!-- 50000 -->
      <g style="fill: #262626" transform="translate(192.337244 268.074922) scale(0.165 -0.165)">
       <use xlink:href="#DejaVuSerif-35"/>
       <use xlink:href="#DejaVuSerif-30" transform="translate(63.623047 0)"/>
       <use xlink:href="#DejaVuSerif-30" transform="translate(127.246094 0)"/>
       <use xlink:href="#DejaVuSerif-30" transform="translate(190.869141 0)"/>
       <use xlink:href="#DejaVuSerif-30" transform="translate(254.492188 0)"/>
      </g>
     </g>
    </g>
    <g id="xtick_4">
     <g id="line2d_4">
      <g>
       <use xlink:href="#mc5262ff0e0" x="278.819148" y="249.0375" style="fill: #262626; stroke: #262626; stroke-width: 0.5"/>
      </g>
     </g>
     <g id="text_4">
      <!-- 75000 -->
      <g style="fill: #262626" transform="translate(252.573835 268.074922) scale(0.165 -0.165)">
       <defs>
        <path id="DejaVuSerif-37" d="M 3609 4347 
L 1784 0 
L 1319 0 
L 3059 4153 
L 903 4153 
L 903 3578 
L 538 3578 
L 538 4666 
L 3609 4666 
L 3609 4347 
z
" transform="scale(0.015625)"/>
       </defs>
       <use xlink:href="#DejaVuSerif-37"/>
       <use xlink:href="#DejaVuSerif-35" transform="translate(63.623047 0)"/>
       <use xlink:href="#DejaVuSerif-30" transform="translate(127.246094 0)"/>
       <use xlink:href="#DejaVuSerif-30" transform="translate(190.869141 0)"/>
       <use xlink:href="#DejaVuSerif-30" transform="translate(254.492188 0)"/>
      </g>
     </g>
    </g>
    <g id="xtick_5">
     <g id="line2d_5">
      <g>
       <use xlink:href="#mc5262ff0e0" x="339.055739" y="249.0375" style="fill: #262626; stroke: #262626; stroke-width: 0.5"/>
      </g>
     </g>
     <g id="text_5">
      <!-- 100000 -->
      <g style="fill: #262626" transform="translate(307.561364 268.074922) scale(0.165 -0.165)">
       <defs>
        <path id="DejaVuSerif-31" d="M 909 0 
L 909 331 
L 1722 331 
L 1722 4213 
L 781 3603 
L 781 4013 
L 1919 4750 
L 2350 4750 
L 2350 331 
L 3163 331 
L 3163 0 
L 909 0 
z
" transform="scale(0.015625)"/>
       </defs>
       <use xlink:href="#DejaVuSerif-31"/>
       <use xlink:href="#DejaVuSerif-30" transform="translate(63.623047 0)"/>
       <use xlink:href="#DejaVuSerif-30" transform="translate(127.246094 0)"/>
       <use xlink:href="#DejaVuSerif-30" transform="translate(190.869141 0)"/>
       <use xlink:href="#DejaVuSerif-30" transform="translate(254.492188 0)"/>
       <use xlink:href="#DejaVuSerif-30" transform="translate(318.115234 0)"/>
      </g>
     </g>
    </g>
    <g id="xtick_6">
     <g id="line2d_6">
      <g>
       <use xlink:href="#mc5262ff0e0" x="399.292329" y="249.0375" style="fill: #262626; stroke: #262626; stroke-width: 0.5"/>
      </g>
     </g>
     <g id="text_6">
      <!-- 125000 -->
      <g style="fill: #262626" transform="translate(367.797954 268.074922) scale(0.165 -0.165)">
       <use xlink:href="#DejaVuSerif-31"/>
       <use xlink:href="#DejaVuSerif-32" transform="translate(63.623047 0)"/>
       <use xlink:href="#DejaVuSerif-35" transform="translate(127.246094 0)"/>
       <use xlink:href="#DejaVuSerif-30" transform="translate(190.869141 0)"/>
       <use xlink:href="#DejaVuSerif-30" transform="translate(254.492188 0)"/>
       <use xlink:href="#DejaVuSerif-30" transform="translate(318.115234 0)"/>
      </g>
     </g>
    </g>
    <g id="xtick_7">
     <g id="line2d_7">
      <g>
       <use xlink:href="#mc5262ff0e0" x="459.52892" y="249.0375" style="fill: #262626; stroke: #262626; stroke-width: 0.5"/>
      </g>
     </g>
     <g id="text_7">
      <!-- 150000 -->
      <g style="fill: #262626" transform="translate(428.034545 268.074922) scale(0.165 -0.165)">
       <use xlink:href="#DejaVuSerif-31"/>
       <use xlink:href="#DejaVuSerif-35" transform="translate(63.623047 0)"/>
       <use xlink:href="#DejaVuSerif-30" transform="translate(127.246094 0)"/>
       <use xlink:href="#DejaVuSerif-30" transform="translate(190.869141 0)"/>
       <use xlink:href="#DejaVuSerif-30" transform="translate(254.492188 0)"/>
       <use xlink:href="#DejaVuSerif-30" transform="translate(318.115234 0)"/>
      </g>
     </g>
    </g>
    <g id="xtick_8">
     <g id="line2d_8">
      <g>
       <use xlink:href="#mc5262ff0e0" x="519.765511" y="249.0375" style="fill: #262626; stroke: #262626; stroke-width: 0.5"/>
      </g>
     </g>
     <g id="text_8">
      <!-- 175000 -->
      <g style="fill: #262626" transform="translate(488.271136 268.074922) scale(0.165 -0.165)">
       <use xlink:href="#DejaVuSerif-31"/>
       <use xlink:href="#DejaVuSerif-37" transform="translate(63.623047 0)"/>
       <use xlink:href="#DejaVuSerif-35" transform="translate(127.246094 0)"/>
       <use xlink:href="#DejaVuSerif-30" transform="translate(190.869141 0)"/>
       <use xlink:href="#DejaVuSerif-30" transform="translate(254.492188 0)"/>
       <use xlink:href="#DejaVuSerif-30" transform="translate(318.115234 0)"/>
      </g>
     </g>
    </g>
    <g id="xtick_9">
     <g id="line2d_9">
      <g>
       <use xlink:href="#mc5262ff0e0" x="580.002102" y="249.0375" style="fill: #262626; stroke: #262626; stroke-width: 0.5"/>
      </g>
     </g>
     <g id="text_9">
      <!-- 200000 -->
      <g style="fill: #262626" transform="translate(548.507727 268.074922) scale(0.165 -0.165)">
       <use xlink:href="#DejaVuSerif-32"/>
       <use xlink:href="#DejaVuSerif-30" transform="translate(63.623047 0)"/>
       <use xlink:href="#DejaVuSerif-30" transform="translate(127.246094 0)"/>
       <use xlink:href="#DejaVuSerif-30" transform="translate(190.869141 0)"/>
       <use xlink:href="#DejaVuSerif-30" transform="translate(254.492188 0)"/>
       <use xlink:href="#DejaVuSerif-30" transform="translate(318.115234 0)"/>
      </g>
     </g>
    </g>
    <g id="text_10">
     <!-- Time since experiment start (ms) -->
     <g style="fill: #262626" transform="translate(206.063906 289.183594) scale(0.18 -0.18)">
      <defs>
       <path id="DejaVuSerif-54" d="M 1222 0 
L 1222 331 
L 1819 331 
L 1819 4294 
L 447 4294 
L 447 3566 
L 63 3566 
L 63 4666 
L 4206 4666 
L 4206 3566 
L 3822 3566 
L 3822 4294 
L 2450 4294 
L 2450 331 
L 3047 331 
L 3047 0 
L 1222 0 
z
" transform="scale(0.015625)"/>
       <path id="DejaVuSerif-69" d="M 622 4353 
Q 622 4497 726 4603 
Q 831 4709 978 4709 
Q 1122 4709 1226 4603 
Q 1331 4497 1331 4353 
Q 1331 4206 1228 4103 
Q 1125 4000 978 4000 
Q 831 4000 726 4103 
Q 622 4206 622 4353 
z
M 1356 331 
L 1900 331 
L 1900 0 
L 231 0 
L 231 331 
L 781 331 
L 781 2988 
L 231 2988 
L 231 3322 
L 1356 3322 
L 1356 331 
z
" transform="scale(0.015625)"/>
       <path id="DejaVuSerif-6d" d="M 3316 2675 
Q 3481 3041 3739 3227 
Q 3997 3413 4341 3413 
Q 4863 3413 5119 3089 
Q 5375 2766 5375 2113 
L 5375 331 
L 5894 331 
L 5894 0 
L 4300 0 
L 4300 331 
L 4800 331 
L 4800 2047 
Q 4800 2556 4650 2772 
Q 4500 2988 4153 2988 
Q 3769 2988 3567 2697 
Q 3366 2406 3366 1850 
L 3366 331 
L 3866 331 
L 3866 0 
L 2291 0 
L 2291 331 
L 2791 331 
L 2791 2069 
Q 2791 2566 2641 2777 
Q 2491 2988 2144 2988 
Q 1759 2988 1557 2697 
Q 1356 2406 1356 1850 
L 1356 331 
L 1856 331 
L 1856 0 
L 263 0 
L 263 331 
L 781 331 
L 781 2994 
L 231 2994 
L 231 3322 
L 1356 3322 
L 1356 2731 
Q 1516 3063 1762 3238 
Q 2009 3413 2322 3413 
Q 2709 3413 2968 3220 
Q 3228 3028 3316 2675 
z
" transform="scale(0.015625)"/>
       <path id="DejaVuSerif-65" d="M 3469 1600 
L 991 1600 
L 991 1575 
Q 991 903 1244 561 
Q 1497 219 1991 219 
Q 2369 219 2611 417 
Q 2853 616 2950 1006 
L 3413 1006 
Q 3275 459 2904 184 
Q 2534 -91 1931 -91 
Q 1203 -91 761 389 
Q 319 869 319 1663 
Q 319 2450 753 2931 
Q 1188 3413 1894 3413 
Q 2647 3413 3050 2948 
Q 3453 2484 3469 1600 
z
M 2791 1931 
Q 2772 2513 2545 2808 
Q 2319 3103 1894 3103 
Q 1497 3103 1269 2806 
Q 1041 2509 991 1931 
L 2791 1931 
z
" transform="scale(0.015625)"/>
       <path id="DejaVuSerif-20" transform="scale(0.015625)"/>
       <path id="DejaVuSerif-73" d="M 359 184 
L 359 959 
L 691 959 
Q 703 588 923 403 
Q 1144 219 1575 219 
Q 1963 219 2166 364 
Q 2369 509 2369 788 
Q 2369 1006 2220 1140 
Q 2072 1275 1594 1428 
L 1178 1569 
Q 750 1706 558 1912 
Q 366 2119 366 2438 
Q 366 2894 700 3153 
Q 1034 3413 1625 3413 
Q 1888 3413 2178 3344 
Q 2469 3275 2778 3144 
L 2778 2419 
L 2447 2419 
Q 2434 2741 2221 2922 
Q 2009 3103 1644 3103 
Q 1281 3103 1095 2975 
Q 909 2847 909 2591 
Q 909 2381 1050 2254 
Q 1191 2128 1613 1997 
L 2069 1856 
Q 2541 1709 2748 1489 
Q 2956 1269 2956 922 
Q 2956 450 2595 179 
Q 2234 -91 1600 -91 
Q 1278 -91 972 -22 
Q 666 47 359 184 
z
" transform="scale(0.015625)"/>
       <path id="DejaVuSerif-6e" d="M 263 0 
L 263 331 
L 781 331 
L 781 2988 
L 231 2988 
L 231 3322 
L 1356 3322 
L 1356 2731 
Q 1516 3069 1770 3241 
Q 2025 3413 2363 3413 
Q 2913 3413 3172 3097 
Q 3431 2781 3431 2113 
L 3431 331 
L 3944 331 
L 3944 0 
L 2356 0 
L 2356 331 
L 2853 331 
L 2853 1931 
Q 2853 2541 2703 2767 
Q 2553 2994 2175 2994 
Q 1775 2994 1565 2701 
Q 1356 2409 1356 1850 
L 1356 331 
L 1856 331 
L 1856 0 
L 263 0 
z
" transform="scale(0.015625)"/>
       <path id="DejaVuSerif-63" d="M 3291 997 
Q 3169 466 2822 187 
Q 2475 -91 1925 -91 
Q 1200 -91 759 389 
Q 319 869 319 1663 
Q 319 2459 759 2936 
Q 1200 3413 1925 3413 
Q 2241 3413 2553 3339 
Q 2866 3266 3181 3116 
L 3181 2266 
L 2847 2266 
Q 2781 2703 2561 2903 
Q 2341 3103 1931 3103 
Q 1466 3103 1228 2742 
Q 991 2381 991 1663 
Q 991 944 1227 581 
Q 1463 219 1931 219 
Q 2303 219 2525 412 
Q 2747 606 2828 997 
L 3291 997 
z
" transform="scale(0.015625)"/>
       <path id="DejaVuSerif-78" d="M 1863 2028 
L 2559 2988 
L 2113 2988 
L 2113 3322 
L 3391 3322 
L 3391 2988 
L 2950 2988 
L 2059 1759 
L 3097 331 
L 3531 331 
L 3531 0 
L 1997 0 
L 1997 331 
L 2419 331 
L 1697 1325 
L 972 331 
L 1403 331 
L 1403 0 
L 141 0 
L 141 331 
L 581 331 
L 1497 1594 
L 488 2988 
L 78 2988 
L 78 3322 
L 1563 3322 
L 1563 2988 
L 1166 2988 
L 1863 2028 
z
" transform="scale(0.015625)"/>
       <path id="DejaVuSerif-70" d="M 1313 1825 
L 1313 1497 
Q 1313 897 1542 583 
Q 1772 269 2209 269 
Q 2650 269 2876 622 
Q 3103 975 3103 1663 
Q 3103 2353 2876 2703 
Q 2650 3053 2209 3053 
Q 1772 3053 1542 2737 
Q 1313 2422 1313 1825 
z
M 738 2988 
L 184 2988 
L 184 3322 
L 1313 3322 
L 1313 2803 
Q 1481 3116 1742 3264 
Q 2003 3413 2388 3413 
Q 3000 3413 3387 2928 
Q 3775 2444 3775 1663 
Q 3775 881 3387 395 
Q 3000 -91 2388 -91 
Q 2003 -91 1742 57 
Q 1481 206 1313 519 
L 1313 -997 
L 1856 -997 
L 1856 -1331 
L 184 -1331 
L 184 -997 
L 738 -997 
L 738 2988 
z
" transform="scale(0.015625)"/>
       <path id="DejaVuSerif-72" d="M 3059 3328 
L 3059 2497 
L 2728 2497 
Q 2713 2744 2591 2866 
Q 2469 2988 2234 2988 
Q 1809 2988 1582 2694 
Q 1356 2400 1356 1850 
L 1356 331 
L 2022 331 
L 2022 0 
L 263 0 
L 263 331 
L 781 331 
L 781 2994 
L 231 2994 
L 231 3322 
L 1356 3322 
L 1356 2731 
Q 1525 3078 1790 3245 
Q 2056 3413 2438 3413 
Q 2578 3413 2733 3391 
Q 2888 3369 3059 3328 
z
" transform="scale(0.015625)"/>
       <path id="DejaVuSerif-74" d="M 691 2988 
L 184 2988 
L 184 3322 
L 691 3322 
L 691 4353 
L 1269 4353 
L 1269 3322 
L 2350 3322 
L 2350 2988 
L 1269 2988 
L 1269 878 
Q 1269 456 1350 337 
Q 1431 219 1650 219 
Q 1875 219 1978 351 
Q 2081 484 2088 781 
L 2522 781 
Q 2497 328 2275 118 
Q 2053 -91 1600 -91 
Q 1103 -91 897 129 
Q 691 350 691 878 
L 691 2988 
z
" transform="scale(0.015625)"/>
       <path id="DejaVuSerif-61" d="M 2547 1044 
L 2547 1747 
L 1806 1747 
Q 1378 1747 1168 1562 
Q 959 1378 959 997 
Q 959 650 1171 447 
Q 1384 244 1747 244 
Q 2106 244 2326 466 
Q 2547 688 2547 1044 
z
M 3122 2075 
L 3122 331 
L 3634 331 
L 3634 0 
L 2547 0 
L 2547 359 
Q 2356 128 2106 18 
Q 1856 -91 1522 -91 
Q 969 -91 644 203 
Q 319 497 319 997 
Q 319 1513 691 1797 
Q 1063 2081 1741 2081 
L 2547 2081 
L 2547 2309 
Q 2547 2688 2317 2895 
Q 2088 3103 1672 3103 
Q 1328 3103 1125 2947 
Q 922 2791 872 2484 
L 575 2484 
L 575 3156 
Q 875 3284 1158 3348 
Q 1441 3413 1709 3413 
Q 2400 3413 2761 3070 
Q 3122 2728 3122 2075 
z
" transform="scale(0.015625)"/>
       <path id="DejaVuSerif-28" d="M 2041 -997 
Q 1281 -656 893 83 
Q 506 822 506 1931 
Q 506 3044 893 3783 
Q 1281 4522 2041 4863 
L 2041 4556 
Q 1559 4225 1350 3623 
Q 1141 3022 1141 1931 
Q 1141 844 1350 242 
Q 1559 -359 2041 -691 
L 2041 -997 
z
" transform="scale(0.015625)"/>
       <path id="DejaVuSerif-29" d="M 453 -997 
L 453 -691 
Q 934 -359 1145 242 
Q 1356 844 1356 1931 
Q 1356 3022 1145 3623 
Q 934 4225 453 4556 
L 453 4863 
Q 1216 4522 1603 3783 
Q 1991 3044 1991 1931 
Q 1991 822 1603 83 
Q 1216 -656 453 -997 
z
" transform="scale(0.015625)"/>
      </defs>
      <use xlink:href="#DejaVuSerif-54"/>
      <use xlink:href="#DejaVuSerif-69" transform="translate(66.699219 0)"/>
      <use xlink:href="#DejaVuSerif-6d" transform="translate(98.681641 0)"/>
      <use xlink:href="#DejaVuSerif-65" transform="translate(193.505859 0)"/>
      <use xlink:href="#DejaVuSerif-20" transform="translate(252.685547 0)"/>
      <use xlink:href="#DejaVuSerif-73" transform="translate(284.472656 0)"/>
      <use xlink:href="#DejaVuSerif-69" transform="translate(335.791016 0)"/>
      <use xlink:href="#DejaVuSerif-6e" transform="translate(367.773438 0)"/>
      <use xlink:href="#DejaVuSerif-63" transform="translate(432.177734 0)"/>
      <use xlink:href="#DejaVuSerif-65" transform="translate(488.183594 0)"/>
      <use xlink:href="#DejaVuSerif-20" transform="translate(547.363281 0)"/>
      <use xlink:href="#DejaVuSerif-65" transform="translate(579.150391 0)"/>
      <use xlink:href="#DejaVuSerif-78" transform="translate(638.330078 0)"/>
      <use xlink:href="#DejaVuSerif-70" transform="translate(694.726562 0)"/>
      <use xlink:href="#DejaVuSerif-65" transform="translate(758.740234 0)"/>
      <use xlink:href="#DejaVuSerif-72" transform="translate(817.919922 0)"/>
      <use xlink:href="#DejaVuSerif-69" transform="translate(865.722656 0)"/>
      <use xlink:href="#DejaVuSerif-6d" transform="translate(897.705078 0)"/>
      <use xlink:href="#DejaVuSerif-65" transform="translate(992.529297 0)"/>
      <use xlink:href="#DejaVuSerif-6e" transform="translate(1051.708984 0)"/>
      <use xlink:href="#DejaVuSerif-74" transform="translate(1116.113281 0)"/>
      <use xlink:href="#DejaVuSerif-20" transform="translate(1156.298828 0)"/>
      <use xlink:href="#DejaVuSerif-73" transform="translate(1188.085938 0)"/>
      <use xlink:href="#DejaVuSerif-74" transform="translate(1239.404297 0)"/>
      <use xlink:href="#DejaVuSerif-61" transform="translate(1279.589844 0)"/>
      <use xlink:href="#DejaVuSerif-72" transform="translate(1339.208984 0)"/>
      <use xlink:href="#DejaVuSerif-74" transform="translate(1387.011719 0)"/>
      <use xlink:href="#DejaVuSerif-20" transform="translate(1427.197266 0)"/>
      <use xlink:href="#DejaVuSerif-28" transform="translate(1458.984375 0)"/>
      <use xlink:href="#DejaVuSerif-6d" transform="translate(1497.998047 0)"/>
      <use xlink:href="#DejaVuSerif-73" transform="translate(1592.822266 0)"/>
      <use xlink:href="#DejaVuSerif-29" transform="translate(1644.140625 0)"/>
     </g>
    </g>
   </g>
   <g id="matplotlib.axis_2">
    <g id="ytick_1">
     <g id="line2d_10">
      <path d="M 98.109375 228.051601 
L 616.989375 228.051601 
" clip-path="url(#p6369963089)" style="fill: none; stroke: #808080; stroke-opacity: 0.5; stroke-width: 0.5; stroke-linecap: round"/>
     </g>
     <g id="line2d_11">
      <defs>
       <path id="m8f90fcf4a0" d="M 0 0 
L -3 0 
" style="stroke: #262626; stroke-width: 0.5"/>
      </defs>
      <g>
       <use xlink:href="#m8f90fcf4a0" x="98.109375" y="228.051601" style="fill: #262626; stroke: #262626; stroke-width: 0.5"/>
      </g>
     </g>
     <g id="text_11">
      <!-- 989367 -->
      <g style="fill: #262626" transform="translate(28.620625 234.320312) scale(0.165 -0.165)">
       <defs>
        <path id="DejaVuSerif-39" d="M 2994 2091 
Q 2784 1856 2512 1740 
Q 2241 1625 1900 1625 
Q 1206 1625 804 2044 
Q 403 2463 403 3188 
Q 403 3897 839 4323 
Q 1275 4750 2003 4750 
Q 2794 4750 3217 4161 
Q 3641 3572 3641 2478 
Q 3641 1253 3137 581 
Q 2634 -91 1722 -91 
Q 1475 -91 1203 -44 
Q 931 3 647 97 
L 647 872 
L 997 872 
Q 1038 556 1241 387 
Q 1444 219 1784 219 
Q 2391 219 2687 676 
Q 2984 1134 2994 2091 
z
M 1978 4441 
Q 1534 4441 1298 4117 
Q 1063 3794 1063 3188 
Q 1063 2581 1298 2256 
Q 1534 1931 1978 1931 
Q 2422 1931 2658 2245 
Q 2894 2559 2894 3150 
Q 2894 3772 2656 4106 
Q 2419 4441 1978 4441 
z
" transform="scale(0.015625)"/>
        <path id="DejaVuSerif-38" d="M 2981 1275 
Q 2981 1775 2732 2051 
Q 2484 2328 2034 2328 
Q 1584 2328 1336 2051 
Q 1088 1775 1088 1275 
Q 1088 772 1336 495 
Q 1584 219 2034 219 
Q 2484 219 2732 495 
Q 2981 772 2981 1275 
z
M 2853 3541 
Q 2853 3966 2637 4203 
Q 2422 4441 2034 4441 
Q 1650 4441 1433 4203 
Q 1216 3966 1216 3541 
Q 1216 3113 1433 2875 
Q 1650 2638 2034 2638 
Q 2422 2638 2637 2875 
Q 2853 3113 2853 3541 
z
M 2516 2484 
Q 3047 2413 3344 2092 
Q 3641 1772 3641 1275 
Q 3641 619 3225 264 
Q 2809 -91 2034 -91 
Q 1263 -91 845 264 
Q 428 619 428 1275 
Q 428 1772 725 2092 
Q 1022 2413 1556 2484 
Q 1084 2569 832 2842 
Q 581 3116 581 3541 
Q 581 4103 968 4426 
Q 1356 4750 2034 4750 
Q 2713 4750 3100 4426 
Q 3488 4103 3488 3541 
Q 3488 3116 3236 2842 
Q 2984 2569 2516 2484 
z
" transform="scale(0.015625)"/>
        <path id="DejaVuSerif-33" d="M 622 4469 
Q 988 4606 1323 4678 
Q 1659 4750 1953 4750 
Q 2638 4750 3022 4454 
Q 3406 4159 3406 3634 
Q 3406 3213 3140 2930 
Q 2875 2647 2388 2547 
Q 2963 2466 3280 2130 
Q 3597 1794 3597 1259 
Q 3597 606 3158 257 
Q 2719 -91 1894 -91 
Q 1528 -91 1179 -12 
Q 831 66 488 225 
L 488 1131 
L 838 1131 
Q 869 681 1141 450 
Q 1413 219 1906 219 
Q 2384 219 2661 495 
Q 2938 772 2938 1253 
Q 2938 1803 2653 2086 
Q 2369 2369 1819 2369 
L 1522 2369 
L 1522 2688 
L 1678 2688 
Q 2225 2688 2498 2914 
Q 2772 3141 2772 3597 
Q 2772 4006 2547 4223 
Q 2322 4441 1900 4441 
Q 1478 4441 1245 4241 
Q 1013 4041 972 3647 
L 622 3647 
L 622 4469 
z
" transform="scale(0.015625)"/>
        <path id="DejaVuSerif-36" d="M 2094 219 
Q 2534 219 2771 542 
Q 3009 866 3009 1472 
Q 3009 2078 2771 2401 
Q 2534 2725 2094 2725 
Q 1647 2725 1412 2412 
Q 1178 2100 1178 1509 
Q 1178 888 1415 553 
Q 1653 219 2094 219 
z
M 1075 2569 
Q 1288 2803 1556 2918 
Q 1825 3034 2163 3034 
Q 2859 3034 3264 2615 
Q 3669 2197 3669 1472 
Q 3669 763 3233 336 
Q 2797 -91 2069 -91 
Q 1278 -91 853 498 
Q 428 1088 428 2181 
Q 428 3406 931 4078 
Q 1434 4750 2350 4750 
Q 2597 4750 2869 4703 
Q 3141 4656 3425 4563 
L 3425 3794 
L 3072 3794 
Q 3034 4109 2831 4275 
Q 2628 4441 2284 4441 
Q 1678 4441 1381 3981 
Q 1084 3522 1075 2569 
z
" transform="scale(0.015625)"/>
       </defs>
       <use xlink:href="#DejaVuSerif-39"/>
       <use xlink:href="#DejaVuSerif-38" transform="translate(63.623047 0)"/>
       <use xlink:href="#DejaVuSerif-39" transform="translate(127.246094 0)"/>
       <use xlink:href="#DejaVuSerif-33" transform="translate(190.869141 0)"/>
       <use xlink:href="#DejaVuSerif-36" transform="translate(254.492188 0)"/>
       <use xlink:href="#DejaVuSerif-37" transform="translate(318.115234 0)"/>
      </g>
     </g>
    </g>
    <g id="ytick_2">
     <g id="line2d_12">
      <path d="M 98.109375 203.068388 
L 616.989375 203.068388 
" clip-path="url(#p6369963089)" style="fill: none; stroke: #808080; stroke-opacity: 0.5; stroke-width: 0.5; stroke-linecap: round"/>
     </g>
     <g id="line2d_13">
      <g>
       <use xlink:href="#m8f90fcf4a0" x="98.109375" y="203.068388" style="fill: #262626; stroke: #262626; stroke-width: 0.5"/>
      </g>
     </g>
     <g id="text_12">
      <!-- 989475 -->
      <g style="fill: #262626" transform="translate(28.620625 209.337099) scale(0.165 -0.165)">
       <defs>
        <path id="DejaVuSerif-34" d="M 2234 1581 
L 2234 4063 
L 641 1581 
L 2234 1581 
z
M 3609 0 
L 1484 0 
L 1484 331 
L 2234 331 
L 2234 1247 
L 197 1247 
L 197 1588 
L 2241 4750 
L 2859 4750 
L 2859 1581 
L 3750 1581 
L 3750 1247 
L 2859 1247 
L 2859 331 
L 3609 331 
L 3609 0 
z
" transform="scale(0.015625)"/>
       </defs>
       <use xlink:href="#DejaVuSerif-39"/>
       <use xlink:href="#DejaVuSerif-38" transform="translate(63.623047 0)"/>
       <use xlink:href="#DejaVuSerif-39" transform="translate(127.246094 0)"/>
       <use xlink:href="#DejaVuSerif-34" transform="translate(190.869141 0)"/>
       <use xlink:href="#DejaVuSerif-37" transform="translate(254.492188 0)"/>
       <use xlink:href="#DejaVuSerif-35" transform="translate(318.115234 0)"/>
      </g>
     </g>
    </g>
    <g id="ytick_3">
     <g id="line2d_14">
      <path d="M 98.109375 178.085176 
L 616.989375 178.085176 
" clip-path="url(#p6369963089)" style="fill: none; stroke: #808080; stroke-opacity: 0.5; stroke-width: 0.5; stroke-linecap: round"/>
     </g>
     <g id="line2d_15">
      <g>
       <use xlink:href="#m8f90fcf4a0" x="98.109375" y="178.085176" style="fill: #262626; stroke: #262626; stroke-width: 0.5"/>
      </g>
     </g>
     <g id="text_13">
      <!-- 989476 -->
      <g style="fill: #262626" transform="translate(28.620625 184.353887) scale(0.165 -0.165)">
       <use xlink:href="#DejaVuSerif-39"/>
       <use xlink:href="#DejaVuSerif-38" transform="translate(63.623047 0)"/>
       <use xlink:href="#DejaVuSerif-39" transform="translate(127.246094 0)"/>
       <use xlink:href="#DejaVuSerif-34" transform="translate(190.869141 0)"/>
       <use xlink:href="#DejaVuSerif-37" transform="translate(254.492188 0)"/>
       <use xlink:href="#DejaVuSerif-36" transform="translate(318.115234 0)"/>
      </g>
     </g>
    </g>
    <g id="ytick_4">
     <g id="line2d_16">
      <path d="M 98.109375 153.101963 
L 616.989375 153.101963 
" clip-path="url(#p6369963089)" style="fill: none; stroke: #808080; stroke-opacity: 0.5; stroke-width: 0.5; stroke-linecap: round"/>
     </g>
     <g id="line2d_17">
      <g>
       <use xlink:href="#m8f90fcf4a0" x="98.109375" y="153.101963" style="fill: #262626; stroke: #262626; stroke-width: 0.5"/>
      </g>
     </g>
     <g id="text_14">
      <!-- 989477 -->
      <g style="fill: #262626" transform="translate(28.620625 159.370674) scale(0.165 -0.165)">
       <use xlink:href="#DejaVuSerif-39"/>
       <use xlink:href="#DejaVuSerif-38" transform="translate(63.623047 0)"/>
       <use xlink:href="#DejaVuSerif-39" transform="translate(127.246094 0)"/>
       <use xlink:href="#DejaVuSerif-34" transform="translate(190.869141 0)"/>
       <use xlink:href="#DejaVuSerif-37" transform="translate(254.492188 0)"/>
       <use xlink:href="#DejaVuSerif-37" transform="translate(318.115234 0)"/>
      </g>
     </g>
    </g>
    <g id="ytick_5">
     <g id="line2d_18">
      <path d="M 98.109375 128.11875 
L 616.989375 128.11875 
" clip-path="url(#p6369963089)" style="fill: none; stroke: #808080; stroke-opacity: 0.5; stroke-width: 0.5; stroke-linecap: round"/>
     </g>
     <g id="line2d_19">
      <g>
       <use xlink:href="#m8f90fcf4a0" x="98.109375" y="128.11875" style="fill: #262626; stroke: #262626; stroke-width: 0.5"/>
      </g>
     </g>
     <g id="text_15">
      <!-- 989478 -->
      <g style="fill: #262626" transform="translate(28.620625 134.387461) scale(0.165 -0.165)">
       <use xlink:href="#DejaVuSerif-39"/>
       <use xlink:href="#DejaVuSerif-38" transform="translate(63.623047 0)"/>
       <use xlink:href="#DejaVuSerif-39" transform="translate(127.246094 0)"/>
       <use xlink:href="#DejaVuSerif-34" transform="translate(190.869141 0)"/>
       <use xlink:href="#DejaVuSerif-37" transform="translate(254.492188 0)"/>
       <use xlink:href="#DejaVuSerif-38" transform="translate(318.115234 0)"/>
      </g>
     </g>
    </g>
    <g id="ytick_6">
     <g id="line2d_20">
      <path d="M 98.109375 103.135537 
L 616.989375 103.135537 
" clip-path="url(#p6369963089)" style="fill: none; stroke: #808080; stroke-opacity: 0.5; stroke-width: 0.5; stroke-linecap: round"/>
     </g>
     <g id="line2d_21">
      <g>
       <use xlink:href="#m8f90fcf4a0" x="98.109375" y="103.135537" style="fill: #262626; stroke: #262626; stroke-width: 0.5"/>
      </g>
     </g>
     <g id="text_16">
      <!-- 989479 -->
      <g style="fill: #262626" transform="translate(28.620625 109.404248) scale(0.165 -0.165)">
       <use xlink:href="#DejaVuSerif-39"/>
       <use xlink:href="#DejaVuSerif-38" transform="translate(63.623047 0)"/>
       <use xlink:href="#DejaVuSerif-39" transform="translate(127.246094 0)"/>
       <use xlink:href="#DejaVuSerif-34" transform="translate(190.869141 0)"/>
       <use xlink:href="#DejaVuSerif-37" transform="translate(254.492188 0)"/>
       <use xlink:href="#DejaVuSerif-39" transform="translate(318.115234 0)"/>
      </g>
     </g>
    </g>
    <g id="ytick_7">
     <g id="line2d_22">
      <path d="M 98.109375 78.152324 
L 616.989375 78.152324 
" clip-path="url(#p6369963089)" style="fill: none; stroke: #808080; stroke-opacity: 0.5; stroke-width: 0.5; stroke-linecap: round"/>
     </g>
     <g id="line2d_23">
      <g>
       <use xlink:href="#m8f90fcf4a0" x="98.109375" y="78.152324" style="fill: #262626; stroke: #262626; stroke-width: 0.5"/>
      </g>
     </g>
     <g id="text_17">
      <!-- 989480 -->
      <g style="fill: #262626" transform="translate(28.620625 84.421035) scale(0.165 -0.165)">
       <use xlink:href="#DejaVuSerif-39"/>
       <use xlink:href="#DejaVuSerif-38" transform="translate(63.623047 0)"/>
       <use xlink:href="#DejaVuSerif-39" transform="translate(127.246094 0)"/>
       <use xlink:href="#DejaVuSerif-34" transform="translate(190.869141 0)"/>
       <use xlink:href="#DejaVuSerif-38" transform="translate(254.492188 0)"/>
       <use xlink:href="#DejaVuSerif-30" transform="translate(318.115234 0)"/>
      </g>
     </g>
    </g>
    <g id="ytick_8">
     <g id="line2d_24">
      <path d="M 98.109375 53.169112 
L 616.989375 53.169112 
" clip-path="url(#p6369963089)" style="fill: none; stroke: #808080; stroke-opacity: 0.5; stroke-width: 0.5; stroke-linecap: round"/>
     </g>
     <g id="line2d_25">
      <g>
       <use xlink:href="#m8f90fcf4a0" x="98.109375" y="53.169112" style="fill: #262626; stroke: #262626; stroke-width: 0.5"/>
      </g>
     </g>
     <g id="text_18">
      <!-- 989481 -->
      <g style="fill: #262626" transform="translate(28.620625 59.437823) scale(0.165 -0.165)">
       <use xlink:href="#DejaVuSerif-39"/>
       <use xlink:href="#DejaVuSerif-38" transform="translate(63.623047 0)"/>
       <use xlink:href="#DejaVuSerif-39" transform="translate(127.246094 0)"/>
       <use xlink:href="#DejaVuSerif-34" transform="translate(190.869141 0)"/>
       <use xlink:href="#DejaVuSerif-38" transform="translate(254.492188 0)"/>
       <use xlink:href="#DejaVuSerif-31" transform="translate(318.115234 0)"/>
      </g>
     </g>
    </g>
    <g id="ytick_9">
     <g id="line2d_26">
      <path d="M 98.109375 28.185899 
L 616.989375 28.185899 
" clip-path="url(#p6369963089)" style="fill: none; stroke: #808080; stroke-opacity: 0.5; stroke-width: 0.5; stroke-linecap: round"/>
     </g>
     <g id="line2d_27">
      <g>
       <use xlink:href="#m8f90fcf4a0" x="98.109375" y="28.185899" style="fill: #262626; stroke: #262626; stroke-width: 0.5"/>
      </g>
     </g>
     <g id="text_19">
      <!-- 989482 -->
      <g style="fill: #262626" transform="translate(28.620625 34.45461) scale(0.165 -0.165)">
       <use xlink:href="#DejaVuSerif-39"/>
       <use xlink:href="#DejaVuSerif-38" transform="translate(63.623047 0)"/>
       <use xlink:href="#DejaVuSerif-39" transform="translate(127.246094 0)"/>
       <use xlink:href="#DejaVuSerif-34" transform="translate(190.869141 0)"/>
       <use xlink:href="#DejaVuSerif-38" transform="translate(254.492188 0)"/>
       <use xlink:href="#DejaVuSerif-32" transform="translate(318.115234 0)"/>
      </g>
     </g>
    </g>
    <g id="text_20">
     <!-- Thread ID -->
     <g style="fill: #262626" transform="translate(20.877187 174.305625) rotate(-90) scale(0.18 -0.18)">
      <defs>
       <path id="DejaVuSerif-68" d="M 263 0 
L 263 331 
L 781 331 
L 781 4531 
L 231 4531 
L 231 4863 
L 1356 4863 
L 1356 2731 
Q 1516 3069 1770 3241 
Q 2025 3413 2363 3413 
Q 2913 3413 3172 3097 
Q 3431 2781 3431 2113 
L 3431 331 
L 3944 331 
L 3944 0 
L 2356 0 
L 2356 331 
L 2853 331 
L 2853 1931 
Q 2853 2541 2704 2764 
Q 2556 2988 2175 2988 
Q 1775 2988 1565 2697 
Q 1356 2406 1356 1850 
L 1356 331 
L 1856 331 
L 1856 0 
L 263 0 
z
" transform="scale(0.015625)"/>
       <path id="DejaVuSerif-64" d="M 3359 331 
L 3909 331 
L 3909 0 
L 2784 0 
L 2784 519 
Q 2616 206 2355 57 
Q 2094 -91 1709 -91 
Q 1097 -91 708 395 
Q 319 881 319 1663 
Q 319 2444 706 2928 
Q 1094 3413 1709 3413 
Q 2094 3413 2355 3264 
Q 2616 3116 2784 2803 
L 2784 4531 
L 2241 4531 
L 2241 4863 
L 3359 4863 
L 3359 331 
z
M 2784 1497 
L 2784 1825 
Q 2784 2422 2554 2737 
Q 2325 3053 1888 3053 
Q 1444 3053 1217 2703 
Q 991 2353 991 1663 
Q 991 975 1217 622 
Q 1444 269 1888 269 
Q 2325 269 2554 583 
Q 2784 897 2784 1497 
z
" transform="scale(0.015625)"/>
       <path id="DejaVuSerif-49" d="M 1581 331 
L 2175 331 
L 2175 0 
L 353 0 
L 353 331 
L 947 331 
L 947 4331 
L 353 4331 
L 353 4666 
L 2175 4666 
L 2175 4331 
L 1581 4331 
L 1581 331 
z
" transform="scale(0.015625)"/>
       <path id="DejaVuSerif-44" d="M 1581 331 
L 2163 331 
Q 3072 331 3558 850 
Q 4044 1369 4044 2338 
Q 4044 3306 3559 3818 
Q 3075 4331 2163 4331 
L 1581 4331 
L 1581 331 
z
M 353 0 
L 353 331 
L 947 331 
L 947 4331 
L 353 4331 
L 353 4666 
L 2209 4666 
Q 3416 4666 4089 4050 
Q 4763 3434 4763 2338 
Q 4763 1238 4088 619 
Q 3413 0 2209 0 
L 353 0 
z
" transform="scale(0.015625)"/>
      </defs>
      <use xlink:href="#DejaVuSerif-54"/>
      <use xlink:href="#DejaVuSerif-68" transform="translate(66.699219 0)"/>
      <use xlink:href="#DejaVuSerif-72" transform="translate(131.103516 0)"/>
      <use xlink:href="#DejaVuSerif-65" transform="translate(178.90625 0)"/>
      <use xlink:href="#DejaVuSerif-61" transform="translate(238.085938 0)"/>
      <use xlink:href="#DejaVuSerif-64" transform="translate(297.705078 0)"/>
      <use xlink:href="#DejaVuSerif-20" transform="translate(361.71875 0)"/>
      <use xlink:href="#DejaVuSerif-49" transform="translate(393.505859 0)"/>
      <use xlink:href="#DejaVuSerif-44" transform="translate(433.007812 0)"/>
     </g>
    </g>
   </g>
   <g id="PolyCollection_1">
    <defs>
     <path id="m68d1298a35" d="M 98.109375 -62.082145 
L 98.109375 -82.068715 
L 592.280804 -82.068715 
L 592.280804 -62.082145 
z
" style="stroke: #000000; stroke-width: 0.6"/>
    </defs>
    <g clip-path="url(#p6369963089)">
     <use xlink:href="#m68d1298a35" x="0" y="300.127031" style="fill: #dc267f; stroke: #000000; stroke-width: 0.6"/>
    </g>
   </g>
   <g id="PolyCollection_2">
    <defs>
     <path id="m2fa0e235ae" d="M 240.179671 -87.065358 
L 240.179671 -107.051928 
L 587.378232 -107.051928 
L 587.378232 -87.065358 
z
" style="stroke: #000000; stroke-width: 0.6"/>
    </defs>
    <g clip-path="url(#p6369963089)">
     <use xlink:href="#m2fa0e235ae" x="0" y="300.127031" style="fill: #648fff; stroke: #000000; stroke-width: 0.6"/>
    </g>
   </g>
   <g id="PolyCollection_3">
    <defs>
     <path id="m265520a3be" d="M 215.657324 -112.048571 
L 215.657324 -132.035141 
L 518.022603 -132.035141 
L 518.022603 -112.048571 
z
" style="stroke: #000000; stroke-width: 0.6"/>
    </defs>
    <g clip-path="url(#p6369963089)">
     <use xlink:href="#m265520a3be" x="0" y="300.127031" style="fill: #648fff; stroke: #000000; stroke-width: 0.6"/>
    </g>
   </g>
   <g id="PolyCollection_4">
    <defs>
     <path id="m20b27f9cc1" d="M 154.378297 -137.031783 
L 154.378297 -157.018354 
L 485.865717 -157.018354 
L 485.865717 -137.031783 
z
" style="stroke: #000000; stroke-width: 0.6"/>
    </defs>
    <g clip-path="url(#p6369963089)">
     <use xlink:href="#m20b27f9cc1" x="0" y="300.127031" style="fill: #648fff; stroke: #000000; stroke-width: 0.6"/>
    </g>
   </g>
   <g id="PolyCollection_5">
    <defs>
     <path id="m5236616662" d="M 227.955942 -162.014996 
L 227.955942 -182.001566 
L 455.454552 -182.001566 
L 455.454552 -162.014996 
z
" style="stroke: #000000; stroke-width: 0.6"/>
    </defs>
    <g clip-path="url(#p6369963089)">
     <use xlink:href="#m5236616662" x="0" y="300.127031" style="fill: #648fff; stroke: #000000; stroke-width: 0.6"/>
    </g>
   </g>
   <g id="PolyCollection_6">
    <defs>
     <path id="m397553a464" d="M 142.102715 -186.998209 
L 142.102715 -206.984779 
L 569.802372 -206.984779 
L 569.802372 -186.998209 
z
" style="stroke: #000000; stroke-width: 0.6"/>
    </defs>
    <g clip-path="url(#p6369963089)">
     <use xlink:href="#m397553a464" x="0" y="300.127031" style="fill: #648fff; stroke: #000000; stroke-width: 0.6"/>
    </g>
   </g>
   <g id="PolyCollection_7">
    <defs>
     <path id="me1081aed6e" d="M 166.72132 -211.981422 
L 166.72132 -231.967992 
L 393.704686 -231.967992 
L 393.704686 -211.981422 
z
" style="stroke: #000000; stroke-width: 0.6"/>
    </defs>
    <g clip-path="url(#p6369963089)">
     <use xlink:href="#me1081aed6e" x="0" y="300.127031" style="fill: #648fff; stroke: #000000; stroke-width: 0.6"/>
    </g>
   </g>
   <g id="PolyCollection_8">
    <defs>
     <path id="m0f54b0a82c" d="M 203.449377 -236.964635 
L 203.449377 -256.951205 
L 455.149415 -256.951205 
L 455.149415 -236.964635 
z
" style="stroke: #000000; stroke-width: 0.6"/>
    </defs>
    <g clip-path="url(#p6369963089)">
     <use xlink:href="#m0f54b0a82c" x="0" y="300.127031" style="fill: #648fff; stroke: #000000; stroke-width: 0.6"/>
    </g>
   </g>
   <g id="PolyCollection_9">
    <defs>
     <path id="m3850850e38" d="M 178.977243 -261.947847 
L 178.977243 -281.934418 
L 538.649012 -281.934418 
L 538.649012 -261.947847 
z
" style="stroke: #000000; stroke-width: 0.6"/>
    </defs>
    <g clip-path="url(#p6369963089)">
     <use xlink:href="#m3850850e38" x="0" y="300.127031" style="fill: #648fff; stroke: #000000; stroke-width: 0.6"/>
    </g>
   </g>
   <g id="patch_3">
    <path d="M 98.109375 238.044886 
L 592.280804 238.044886 
L 592.280804 218.058316 
L 98.109375 218.058316 
L 98.109375 238.044886 
z
" clip-path="url(#p6369963089)" style="fill: none; opacity: 0"/>
   </g>
   <g id="patch_4">
    <path d="M 240.179671 213.061674 
L 587.378232 213.061674 
L 587.378232 193.075103 
L 240.179671 193.075103 
L 240.179671 213.061674 
z
" clip-path="url(#p6369963089)" style="fill: none; opacity: 0"/>
   </g>
   <g id="patch_5">
    <path d="M 215.657324 188.078461 
L 518.022603 188.078461 
L 518.022603 168.09189 
L 215.657324 168.09189 
L 215.657324 188.078461 
z
" clip-path="url(#p6369963089)" style="fill: none; opacity: 0"/>
   </g>
   <g id="patch_6">
    <path d="M 154.378297 163.095248 
L 485.865717 163.095248 
L 485.865717 143.108678 
L 154.378297 143.108678 
L 154.378297 163.095248 
z
" clip-path="url(#p6369963089)" style="fill: none; opacity: 0"/>
   </g>
   <g id="patch_7">
    <path d="M 227.955942 138.112035 
L 455.454552 138.112035 
L 455.454552 118.125465 
L 227.955942 118.125465 
L 227.955942 138.112035 
z
" clip-path="url(#p6369963089)" style="fill: none; opacity: 0"/>
   </g>
   <g id="patch_8">
    <path d="M 142.102715 113.128822 
L 569.802372 113.128822 
L 569.802372 93.142252 
L 142.102715 93.142252 
L 142.102715 113.128822 
z
" clip-path="url(#p6369963089)" style="fill: none; opacity: 0"/>
   </g>
   <g id="patch_9">
    <path d="M 166.72132 88.14561 
L 393.704686 88.14561 
L 393.704686 68.159039 
L 166.72132 68.159039 
L 166.72132 88.14561 
z
" clip-path="url(#p6369963089)" style="fill: none; opacity: 0"/>
   </g>
   <g id="patch_10">
    <path d="M 203.449377 63.162397 
L 455.149415 63.162397 
L 455.149415 43.175826 
L 203.449377 43.175826 
L 203.449377 63.162397 
z
" clip-path="url(#p6369963089)" style="fill: none; opacity: 0"/>
   </g>
   <g id="patch_11">
    <path d="M 178.977243 38.179184 
L 538.649012 38.179184 
L 538.649012 18.192614 
L 178.977243 18.192614 
L 178.977243 38.179184 
z
" clip-path="url(#p6369963089)" style="fill: none; opacity: 0"/>
   </g>
   <g id="patch_12">
    <path d="M 98.109375 249.0375 
L 98.109375 7.2 
" style="fill: none; stroke: #262626; stroke-width: 0.8; stroke-linejoin: miter; stroke-linecap: square"/>
   </g>
   <g id="patch_13">
    <path d="M 616.989375 249.0375 
L 616.989375 7.2 
" style="fill: none; stroke: #262626; stroke-width: 0.8; stroke-linejoin: miter; stroke-linecap: square"/>
   </g>
   <g id="patch_14">
    <path d="M 98.109375 249.0375 
L 616.989375 249.0375 
" style="fill: none; stroke: #262626; stroke-width: 0.8; stroke-linejoin: miter; stroke-linecap: square"/>
   </g>
   <g id="patch_15">
    <path d="M 98.109375 7.2 
L 616.989375 7.2 
" style="fill: none; stroke: #262626; stroke-width: 0.8; stroke-linejoin: miter; stroke-linecap: square"/>
   </g>
   <g id="text_21">
    <g id="patch_16">
     <path d="M 333.922902 206.183128 
L 356.467277 206.183128 
L 356.467277 192.353753 
L 333.922902 192.353753 
z
" style="fill: #ffffff"/>
    </g>
    <!-- 0.8 -->
    <g transform="translate(334.062902 203.131565) scale(0.14 -0.14)">
     <defs>
      <path id="DejaVuSerif-2e" d="M 603 325 
Q 603 500 722 622 
Q 841 744 1019 744 
Q 1191 744 1312 622 
Q 1434 500 1434 325 
Q 1434 153 1312 31 
Q 1191 -91 1019 -91 
Q 841 -91 722 29 
Q 603 150 603 325 
z
" transform="scale(0.015625)"/>
     </defs>
     <use xlink:href="#DejaVuSerif-30"/>
     <use xlink:href="#DejaVuSerif-2e" transform="translate(63.623047 0)"/>
     <use xlink:href="#DejaVuSerif-38" transform="translate(95.410156 0)"/>
    </g>
   </g>
   <g id="text_22">
    <g id="patch_17">
     <path d="M 402.506764 206.183128 
L 425.051139 206.183128 
L 425.051139 192.353753 
L 402.506764 192.353753 
z
" style="fill: #ffffff"/>
    </g>
    <!-- 0.8 -->
    <g transform="translate(402.646764 203.131565) scale(0.14 -0.14)">
     <use xlink:href="#DejaVuSerif-30"/>
     <use xlink:href="#DejaVuSerif-2e" transform="translate(63.623047 0)"/>
     <use xlink:href="#DejaVuSerif-38" transform="translate(95.410156 0)"/>
    </g>
   </g>
   <g id="text_23">
    <g id="patch_18">
     <path d="M 355.567776 206.183128 
L 378.112151 206.183128 
L 378.112151 192.353753 
L 355.567776 192.353753 
z
" style="fill: #ffffff"/>
    </g>
    <!-- 0.8 -->
    <g transform="translate(355.707776 203.131565) scale(0.14 -0.14)">
     <use xlink:href="#DejaVuSerif-30"/>
     <use xlink:href="#DejaVuSerif-2e" transform="translate(63.623047 0)"/>
     <use xlink:href="#DejaVuSerif-38" transform="translate(95.410156 0)"/>
    </g>
   </g>
   <g id="text_24">
    <g id="patch_19">
     <path d="M 308.849819 206.183128 
L 331.394194 206.183128 
L 331.394194 192.353753 
L 308.849819 192.353753 
z
" style="fill: #ffffff"/>
    </g>
    <!-- 0.8 -->
    <g transform="translate(308.989819 203.131565) scale(0.14 -0.14)">
     <use xlink:href="#DejaVuSerif-30"/>
     <use xlink:href="#DejaVuSerif-2e" transform="translate(63.623047 0)"/>
     <use xlink:href="#DejaVuSerif-38" transform="translate(95.410156 0)"/>
    </g>
   </g>
   <g id="text_25">
    <g id="patch_20">
     <path d="M 330.433059 206.183128 
L 352.977434 206.183128 
L 352.977434 192.353753 
L 330.433059 192.353753 
z
" style="fill: #ffffff"/>
    </g>
    <!-- 0.8 -->
    <g transform="translate(330.573059 203.131565) scale(0.14 -0.14)">
     <use xlink:href="#DejaVuSerif-30"/>
     <use xlink:href="#DejaVuSerif-2e" transform="translate(63.623047 0)"/>
     <use xlink:href="#DejaVuSerif-38" transform="translate(95.410156 0)"/>
    </g>
   </g>
   <g id="text_26">
    <g id="patch_21">
     <path d="M 344.680356 206.183128 
L 367.224731 206.183128 
L 367.224731 192.353753 
L 344.680356 192.353753 
z
" style="fill: #ffffff"/>
    </g>
    <!-- 0.8 -->
    <g transform="translate(344.820356 203.131565) scale(0.14 -0.14)">
     <use xlink:href="#DejaVuSerif-30"/>
     <use xlink:href="#DejaVuSerif-2e" transform="translate(63.623047 0)"/>
     <use xlink:href="#DejaVuSerif-38" transform="translate(95.410156 0)"/>
    </g>
   </g>
   <g id="text_27">
    <g id="patch_22">
     <path d="M 268.940815 206.183128 
L 291.48519 206.183128 
L 291.48519 192.353753 
L 268.940815 192.353753 
z
" style="fill: #ffffff"/>
    </g>
    <!-- 0.8 -->
    <g transform="translate(269.080815 203.131565) scale(0.14 -0.14)">
     <use xlink:href="#DejaVuSerif-30"/>
     <use xlink:href="#DejaVuSerif-2e" transform="translate(63.623047 0)"/>
     <use xlink:href="#DejaVuSerif-38" transform="translate(95.410156 0)"/>
    </g>
   </g>
   <g id="text_28">
    <g id="patch_23">
     <path d="M 318.027209 206.183128 
L 340.571584 206.183128 
L 340.571584 192.353753 
L 318.027209 192.353753 
z
" style="fill: #ffffff"/>
    </g>
    <!-- 0.8 -->
    <g transform="translate(318.167209 203.131565) scale(0.14 -0.14)">
     <use xlink:href="#DejaVuSerif-30"/>
     <use xlink:href="#DejaVuSerif-2e" transform="translate(63.623047 0)"/>
     <use xlink:href="#DejaVuSerif-38" transform="translate(95.410156 0)"/>
    </g>
   </g>
   <g id="text_29">
    <g id="patch_24">
     <path d="M 347.54094 206.183128 
L 370.085315 206.183128 
L 370.085315 192.353753 
L 347.54094 192.353753 
z
" style="fill: #ffffff"/>
    </g>
    <!-- 0.8 -->
    <g transform="translate(347.68094 203.131565) scale(0.14 -0.14)">
     <use xlink:href="#DejaVuSerif-30"/>
     <use xlink:href="#DejaVuSerif-2e" transform="translate(63.623047 0)"/>
     <use xlink:href="#DejaVuSerif-38" transform="translate(95.410156 0)"/>
    </g>
   </g>
  </g>
 </g>
 <defs>
  <clipPath id="p6369963089">
   <rect x="98.109375" y="7.2" width="518.88" height="241.8375"/>
  </clipPath>
 </defs>
</svg>
