<?xml version="1.0" encoding="utf-8" standalone="no"?>
<!DOCTYPE svg PUBLIC "-//W3C//DTD SVG 1.1//EN"
  "http://www.w3.org/Graphics/SVG/1.1/DTD/svg11.dtd">
<svg xmlns:xlink="http://www.w3.org/1999/xlink" width="624.285pt" height="301.649719pt" viewBox="0 0 624.285 301.649719" xmlns="http://www.w3.org/2000/svg" version="1.1">
 <metadata>
  <rdf:RDF xmlns:dc="http://purl.org/dc/elements/1.1/" xmlns:cc="http://creativecommons.org/ns#" xmlns:rdf="http://www.w3.org/1999/02/22-rdf-syntax-ns#">
   <cc:Work>
    <dc:type rdf:resource="http://purl.org/dc/dcmitype/StillImage"/>
    <dc:date>2025-12-11T17:41:01.427280</dc:date>
    <dc:format>image/svg+xml</dc:format>
    <dc:creator>
     <cc:Agent>
      <dc:title>Matplotlib v3.10.6, https://matplotlib.org/</dc:title>
     </cc:Agent>
    </dc:creator>
   </cc:Work>
  </rdf:RDF>
 </metadata>
 <defs>
  <style type="text/css">*{stroke-linejoin: round; stroke-linecap: butt}</style>
 </defs>
 <g id="figure_1">
  <g id="patch_1">
   <path d="M 0 301.649719 
L 624.285 301.649719 
L 624.285 0 
L 0 0 
z
" style="fill: #ffffff"/>
  </g>
  <g id="axes_1">
   <g id="patch_2">
    <path d="M 66.615 231.849187 
L 617.085 231.849187 
L 617.085 26.877187 
L 66.615 26.877187 
z
" style="fill: #ffffff"/>
   </g>
   <g id="matplotlib.axis_1">
    <g id="xtick_1">
     <g id="line2d_1">
      <defs>
       <path id="mc1da66a1f5" d="M 0 0 
L 0 3 
" style="stroke: #262626; stroke-width: 0.8"/>
      </defs>
      <g>
       <use xlink:href="#mc1da66a1f5" x="135.42375" y="231.849187" style="fill: #262626; stroke: #262626; stroke-width: 0.8"/>
      </g>
     </g>
     <g id="text_1">
      <!-- Thread- -->
      <g style="fill: #262626" transform="translate(102.792422 250.886609) scale(0.165 -0.165)">
       <defs>
        <path id="DejaVuSerif-54" d="M 1222 0 
L 1222 331 
L 1819 331 
L 1819 4294 
L 447 4294 
L 447 3566 
L 63 3566 
L 63 4666 
L 4206 4666 
L 4206 3566 
L 3822 3566 
L 3822 4294 
L 2450 4294 
L 2450 331 
L 3047 331 
L 3047 0 
L 1222 0 
z
" transform="scale(0.015625)"/>
        <path id="DejaVuSerif-68" d="M 263 0 
L 263 331 
L 781 331 
L 781 4531 
L 231 4531 
L 231 4863 
L 1356 4863 
L 1356 2731 
Q 1516 3069 1770 3241 
Q 2025 3413 2363 3413 
Q 2913 3413 3172 3097 
Q 3431 2781 3431 2113 
L 3431 331 
L 3944 331 
L 3944 0 
L 2356 0 
L 2356 331 
L 2853 331 
L 2853 1931 
Q 2853 2541 2704 2764 
Q 2556 2988 2175 2988 
Q 1775 2988 1565 2697 
Q 1356 2406 1356 1850 
L 1356 331 
L 1856 331 
L 1856 0 
L 263 0 
z
" transform="scale(0.015625)"/>
        <path id="DejaVuSerif-72" d="M 3059 3328 
L 3059 2497 
L 2728 2497 
Q 2713 2744 2591 2866 
Q 2469 2988 2234 2988 
Q 1809 2988 1582 2694 
Q 1356 2400 1356 1850 
L 1356 331 
L 2022 331 
L 2022 0 
L 263 0 
L 263 331 
L 781 331 
L 781 2994 
L 231 2994 
L 231 3322 
L 1356 3322 
L 1356 2731 
Q 1525 3078 1790 3245 
Q 2056 3413 2438 3413 
Q 2578 3413 2733 3391 
Q 2888 3369 3059 3328 
z
" transform="scale(0.015625)"/>
        <path id="DejaVuSerif-65" d="M 3469 1600 
L 991 1600 
L 991 1575 
Q 991 903 1244 561 
Q 1497 219 1991 219 
Q 2369 219 2611 417 
Q 2853 616 2950 1006 
L 3413 1006 
Q 3275 459 2904 184 
Q 2534 -91 1931 -91 
Q 1203 -91 761 389 
Q 319 869 319 1663 
Q 319 2450 753 2931 
Q 1188 3413 1894 3413 
Q 2647 3413 3050 2948 
Q 3453 2484 3469 1600 
z
M 2791 1931 
Q 2772 2513 2545 2808 
Q 2319 3103 1894 3103 
Q 1497 3103 1269 2806 
Q 1041 2509 991 1931 
L 2791 1931 
z
" transform="scale(0.015625)"/>
        <path id="DejaVuSerif-61" d="M 2547 1044 
L 2547 1747 
L 1806 1747 
Q 1378 1747 1168 1562 
Q 959 1378 959 997 
Q 959 650 1171 447 
Q 1384 244 1747 244 
Q 2106 244 2326 466 
Q 2547 688 2547 1044 
z
M 3122 2075 
L 3122 331 
L 3634 331 
L 3634 0 
L 2547 0 
L 2547 359 
Q 2356 128 2106 18 
Q 1856 -91 1522 -91 
Q 969 -91 644 203 
Q 319 497 319 997 
Q 319 1513 691 1797 
Q 1063 2081 1741 2081 
L 2547 2081 
L 2547 2309 
Q 2547 2688 2317 2895 
Q 2088 3103 1672 3103 
Q 1328 3103 1125 2947 
Q 922 2791 872 2484 
L 575 2484 
L 575 3156 
Q 875 3284 1158 3348 
Q 1441 3413 1709 3413 
Q 2400 3413 2761 3070 
Q 3122 2728 3122 2075 
z
" transform="scale(0.015625)"/>
        <path id="DejaVuSerif-64" d="M 3359 331 
L 3909 331 
L 3909 0 
L 2784 0 
L 2784 519 
Q 2616 206 2355 57 
Q 2094 -91 1709 -91 
Q 1097 -91 708 395 
Q 319 881 319 1663 
Q 319 2444 706 2928 
Q 1094 3413 1709 3413 
Q 2094 3413 2355 3264 
Q 2616 3116 2784 2803 
L 2784 4531 
L 2241 4531 
L 2241 4863 
L 3359 4863 
L 3359 331 
z
M 2784 1497 
L 2784 1825 
Q 2784 2422 2554 2737 
Q 2325 3053 1888 3053 
Q 1444 3053 1217 2703 
Q 991 2353 991 1663 
Q 991 975 1217 622 
Q 1444 269 1888 269 
Q 2325 269 2554 583 
Q 2784 897 2784 1497 
z
" transform="scale(0.015625)"/>
        <path id="DejaVuSerif-2d" d="M 281 1959 
L 1881 1959 
L 1881 1472 
L 281 1472 
L 281 1959 
z
" transform="scale(0.015625)"/>
       </defs>
       <use xlink:href="#DejaVuSerif-54"/>
       <use xlink:href="#DejaVuSerif-68" transform="translate(66.699219 0)"/>
       <use xlink:href="#DejaVuSerif-72" transform="translate(131.103516 0)"/>
       <use xlink:href="#DejaVuSerif-65" transform="translate(178.90625 0)"/>
       <use xlink:href="#DejaVuSerif-61" transform="translate(238.085938 0)"/>
       <use xlink:href="#DejaVuSerif-64" transform="translate(297.705078 0)"/>
       <use xlink:href="#DejaVuSerif-2d" transform="translate(361.71875 0)"/>
      </g>
      <!-- ing -->
      <g style="fill: #262626" transform="translate(122.190234 269.363) scale(0.165 -0.165)">
       <defs>
        <path id="DejaVuSerif-69" d="M 622 4353 
Q 622 4497 726 4603 
Q 831 4709 978 4709 
Q 1122 4709 1226 4603 
Q 1331 4497 1331 4353 
Q 1331 4206 1228 4103 
Q 1125 4000 978 4000 
Q 831 4000 726 4103 
Q 622 4206 622 4353 
z
M 1356 331 
L 1900 331 
L 1900 0 
L 231 0 
L 231 331 
L 781 331 
L 781 2988 
L 231 2988 
L 231 3322 
L 1356 3322 
L 1356 331 
z
" transform="scale(0.015625)"/>
        <path id="DejaVuSerif-6e" d="M 263 0 
L 263 331 
L 781 331 
L 781 2988 
L 231 2988 
L 231 3322 
L 1356 3322 
L 1356 2731 
Q 1516 3069 1770 3241 
Q 2025 3413 2363 3413 
Q 2913 3413 3172 3097 
Q 3431 2781 3431 2113 
L 3431 331 
L 3944 331 
L 3944 0 
L 2356 0 
L 2356 331 
L 2853 331 
L 2853 1931 
Q 2853 2541 2703 2767 
Q 2553 2994 2175 2994 
Q 1775 2994 1565 2701 
Q 1356 2409 1356 1850 
L 1356 331 
L 1856 331 
L 1856 0 
L 263 0 
z
" transform="scale(0.015625)"/>
        <path id="DejaVuSerif-67" d="M 3359 2988 
L 3359 72 
Q 3359 -644 2965 -1033 
Q 2572 -1422 1844 -1422 
Q 1516 -1422 1216 -1362 
Q 916 -1303 641 -1184 
L 641 -488 
L 941 -488 
Q 997 -813 1206 -963 
Q 1416 -1113 1806 -1113 
Q 2313 -1113 2548 -827 
Q 2784 -541 2784 72 
L 2784 519 
Q 2616 206 2355 57 
Q 2094 -91 1709 -91 
Q 1097 -91 708 395 
Q 319 881 319 1663 
Q 319 2444 706 2928 
Q 1094 3413 1709 3413 
Q 2094 3413 2355 3264 
Q 2616 3116 2784 2803 
L 2784 3322 
L 3909 3322 
L 3909 2988 
L 3359 2988 
z
M 2784 1825 
Q 2784 2422 2554 2737 
Q 2325 3053 1888 3053 
Q 1444 3053 1217 2703 
Q 991 2353 991 1663 
Q 991 975 1217 622 
Q 1444 269 1888 269 
Q 2325 269 2554 583 
Q 2784 897 2784 1497 
L 2784 1825 
z
" transform="scale(0.015625)"/>
       </defs>
       <use xlink:href="#DejaVuSerif-69"/>
       <use xlink:href="#DejaVuSerif-6e" transform="translate(31.982422 0)"/>
       <use xlink:href="#DejaVuSerif-67" transform="translate(96.386719 0)"/>
      </g>
     </g>
    </g>
    <g id="xtick_2">
     <g id="line2d_2">
      <g>
       <use xlink:href="#mc1da66a1f5" x="273.04125" y="231.849187" style="fill: #262626; stroke: #262626; stroke-width: 0.8"/>
      </g>
     </g>
     <g id="text_2">
      <!-- Mp -->
      <g style="fill: #262626" transform="translate(259.312734 250.886609) scale(0.165 -0.165)">
       <defs>
        <path id="DejaVuSerif-4d" d="M 353 0 
L 353 331 
L 947 331 
L 947 4331 
L 319 4331 
L 319 4666 
L 1678 4666 
L 3316 1344 
L 4953 4666 
L 6228 4666 
L 6228 4331 
L 5606 4331 
L 5606 331 
L 6203 331 
L 6203 0 
L 4378 0 
L 4378 331 
L 4972 331 
L 4972 3938 
L 3372 684 
L 2931 684 
L 1331 3938 
L 1331 331 
L 1925 331 
L 1925 0 
L 353 0 
z
" transform="scale(0.015625)"/>
        <path id="DejaVuSerif-70" d="M 1313 1825 
L 1313 1497 
Q 1313 897 1542 583 
Q 1772 269 2209 269 
Q 2650 269 2876 622 
Q 3103 975 3103 1663 
Q 3103 2353 2876 2703 
Q 2650 3053 2209 3053 
Q 1772 3053 1542 2737 
Q 1313 2422 1313 1825 
z
M 738 2988 
L 184 2988 
L 184 3322 
L 1313 3322 
L 1313 2803 
Q 1481 3116 1742 3264 
Q 2003 3413 2388 3413 
Q 3000 3413 3387 2928 
Q 3775 2444 3775 1663 
Q 3775 881 3387 395 
Q 3000 -91 2388 -91 
Q 2003 -91 1742 57 
Q 1481 206 1313 519 
L 1313 -997 
L 1856 -997 
L 1856 -1331 
L 184 -1331 
L 184 -997 
L 738 -997 
L 738 2988 
z
" transform="scale(0.015625)"/>
       </defs>
       <use xlink:href="#DejaVuSerif-4d"/>
       <use xlink:href="#DejaVuSerif-70" transform="translate(102.392578 0)"/>
      </g>
      <!-- Threads -->
      <g style="fill: #262626" transform="translate(238.964883 269.363) scale(0.165 -0.165)">
       <defs>
        <path id="DejaVuSerif-73" d="M 359 184 
L 359 959 
L 691 959 
Q 703 588 923 403 
Q 1144 219 1575 219 
Q 1963 219 2166 364 
Q 2369 509 2369 788 
Q 2369 1006 2220 1140 
Q 2072 1275 1594 1428 
L 1178 1569 
Q 750 1706 558 1912 
Q 366 2119 366 2438 
Q 366 2894 700 3153 
Q 1034 3413 1625 3413 
Q 1888 3413 2178 3344 
Q 2469 3275 2778 3144 
L 2778 2419 
L 2447 2419 
Q 2434 2741 2221 2922 
Q 2009 3103 1644 3103 
Q 1281 3103 1095 2975 
Q 909 2847 909 2591 
Q 909 2381 1050 2254 
Q 1191 2128 1613 1997 
L 2069 1856 
Q 2541 1709 2748 1489 
Q 2956 1269 2956 922 
Q 2956 450 2595 179 
Q 2234 -91 1600 -91 
Q 1278 -91 972 -22 
Q 666 47 359 184 
z
" transform="scale(0.015625)"/>
       </defs>
       <use xlink:href="#DejaVuSerif-54"/>
       <use xlink:href="#DejaVuSerif-68" transform="translate(66.699219 0)"/>
       <use xlink:href="#DejaVuSerif-72" transform="translate(131.103516 0)"/>
       <use xlink:href="#DejaVuSerif-65" transform="translate(178.90625 0)"/>
       <use xlink:href="#DejaVuSerif-61" transform="translate(238.085938 0)"/>
       <use xlink:href="#DejaVuSerif-64" transform="translate(297.705078 0)"/>
       <use xlink:href="#DejaVuSerif-73" transform="translate(361.71875 0)"/>
      </g>
     </g>
    </g>
    <g id="xtick_3">
     <g id="line2d_3">
      <g>
       <use xlink:href="#mc1da66a1f5" x="410.65875" y="231.849187" style="fill: #262626; stroke: #262626; stroke-width: 0.8"/>
      </g>
     </g>
     <g id="text_3">
      <!-- omp4py -->
      <g style="fill: #262626" transform="translate(377.395781 250.652) scale(0.165 -0.165)">
       <defs>
        <path id="DejaVuSerif-6f" d="M 1925 219 
Q 2388 219 2623 584 
Q 2859 950 2859 1663 
Q 2859 2375 2623 2739 
Q 2388 3103 1925 3103 
Q 1463 3103 1227 2739 
Q 991 2375 991 1663 
Q 991 950 1228 584 
Q 1466 219 1925 219 
z
M 1925 -91 
Q 1200 -91 759 389 
Q 319 869 319 1663 
Q 319 2456 758 2934 
Q 1197 3413 1925 3413 
Q 2653 3413 3092 2934 
Q 3531 2456 3531 1663 
Q 3531 869 3092 389 
Q 2653 -91 1925 -91 
z
" transform="scale(0.015625)"/>
        <path id="DejaVuSerif-6d" d="M 3316 2675 
Q 3481 3041 3739 3227 
Q 3997 3413 4341 3413 
Q 4863 3413 5119 3089 
Q 5375 2766 5375 2113 
L 5375 331 
L 5894 331 
L 5894 0 
L 4300 0 
L 4300 331 
L 4800 331 
L 4800 2047 
Q 4800 2556 4650 2772 
Q 4500 2988 4153 2988 
Q 3769 2988 3567 2697 
Q 3366 2406 3366 1850 
L 3366 331 
L 3866 331 
L 3866 0 
L 2291 0 
L 2291 331 
L 2791 331 
L 2791 2069 
Q 2791 2566 2641 2777 
Q 2491 2988 2144 2988 
Q 1759 2988 1557 2697 
Q 1356 2406 1356 1850 
L 1356 331 
L 1856 331 
L 1856 0 
L 263 0 
L 263 331 
L 781 331 
L 781 2994 
L 231 2994 
L 231 3322 
L 1356 3322 
L 1356 2731 
Q 1516 3063 1762 3238 
Q 2009 3413 2322 3413 
Q 2709 3413 2968 3220 
Q 3228 3028 3316 2675 
z
" transform="scale(0.015625)"/>
        <path id="DejaVuSerif-34" d="M 2234 1581 
L 2234 4063 
L 641 1581 
L 2234 1581 
z
M 3609 0 
L 1484 0 
L 1484 331 
L 2234 331 
L 2234 1247 
L 197 1247 
L 197 1588 
L 2241 4750 
L 2859 4750 
L 2859 1581 
L 3750 1581 
L 3750 1247 
L 2859 1247 
L 2859 331 
L 3609 331 
L 3609 0 
z
" transform="scale(0.015625)"/>
        <path id="DejaVuSerif-79" d="M 1381 -609 
L 1600 -56 
L 359 2988 
L -19 2988 
L -19 3322 
L 1509 3322 
L 1509 2988 
L 978 2988 
L 1913 703 
L 2847 2988 
L 2350 2988 
L 2350 3322 
L 3597 3322 
L 3597 2988 
L 3225 2988 
L 1703 -750 
Q 1547 -1138 1356 -1280 
Q 1166 -1422 819 -1422 
Q 672 -1422 517 -1397 
Q 363 -1372 206 -1325 
L 206 -691 
L 500 -691 
Q 519 -903 608 -995 
Q 697 -1088 884 -1088 
Q 1056 -1088 1161 -992 
Q 1266 -897 1381 -609 
z
" transform="scale(0.015625)"/>
       </defs>
       <use xlink:href="#DejaVuSerif-6f"/>
       <use xlink:href="#DejaVuSerif-6d" transform="translate(60.205078 0)"/>
       <use xlink:href="#DejaVuSerif-70" transform="translate(155.029297 0)"/>
       <use xlink:href="#DejaVuSerif-34" transform="translate(219.042969 0)"/>
       <use xlink:href="#DejaVuSerif-70" transform="translate(282.666016 0)"/>
       <use xlink:href="#DejaVuSerif-79" transform="translate(346.679688 0)"/>
      </g>
      <!-- Static -->
      <g style="fill: #262626" transform="translate(386.198789 269.363) scale(0.165 -0.165)">
       <defs>
        <path id="DejaVuSerif-53" d="M 594 225 
L 594 1288 
L 953 1284 
Q 969 753 1261 498 
Q 1553 244 2150 244 
Q 2706 244 2998 464 
Q 3291 684 3291 1106 
Q 3291 1444 3114 1625 
Q 2938 1806 2369 1978 
L 1753 2163 
Q 1084 2366 811 2669 
Q 538 2972 538 3500 
Q 538 4094 959 4422 
Q 1381 4750 2144 4750 
Q 2469 4750 2856 4679 
Q 3244 4609 3681 4475 
L 3681 3481 
L 3328 3481 
Q 3275 3975 2998 4195 
Q 2722 4416 2156 4416 
Q 1663 4416 1405 4214 
Q 1147 4013 1147 3628 
Q 1147 3294 1340 3103 
Q 1534 2913 2163 2725 
L 2741 2553 
Q 3375 2363 3645 2067 
Q 3916 1772 3916 1275 
Q 3916 597 3481 253 
Q 3047 -91 2188 -91 
Q 1803 -91 1404 -12 
Q 1006 66 594 225 
z
" transform="scale(0.015625)"/>
        <path id="DejaVuSerif-74" d="M 691 2988 
L 184 2988 
L 184 3322 
L 691 3322 
L 691 4353 
L 1269 4353 
L 1269 3322 
L 2350 3322 
L 2350 2988 
L 1269 2988 
L 1269 878 
Q 1269 456 1350 337 
Q 1431 219 1650 219 
Q 1875 219 1978 351 
Q 2081 484 2088 781 
L 2522 781 
Q 2497 328 2275 118 
Q 2053 -91 1600 -91 
Q 1103 -91 897 129 
Q 691 350 691 878 
L 691 2988 
z
" transform="scale(0.015625)"/>
        <path id="DejaVuSerif-63" d="M 3291 997 
Q 3169 466 2822 187 
Q 2475 -91 1925 -91 
Q 1200 -91 759 389 
Q 319 869 319 1663 
Q 319 2459 759 2936 
Q 1200 3413 1925 3413 
Q 2241 3413 2553 3339 
Q 2866 3266 3181 3116 
L 3181 2266 
L 2847 2266 
Q 2781 2703 2561 2903 
Q 2341 3103 1931 3103 
Q 1466 3103 1228 2742 
Q 991 2381 991 1663 
Q 991 944 1227 581 
Q 1463 219 1931 219 
Q 2303 219 2525 412 
Q 2747 606 2828 997 
L 3291 997 
z
" transform="scale(0.015625)"/>
       </defs>
       <use xlink:href="#DejaVuSerif-53"/>
       <use xlink:href="#DejaVuSerif-74" transform="translate(68.505859 0)"/>
       <use xlink:href="#DejaVuSerif-61" transform="translate(108.691406 0)"/>
       <use xlink:href="#DejaVuSerif-74" transform="translate(168.310547 0)"/>
       <use xlink:href="#DejaVuSerif-69" transform="translate(208.496094 0)"/>
       <use xlink:href="#DejaVuSerif-63" transform="translate(240.478516 0)"/>
      </g>
     </g>
    </g>
    <g id="xtick_4">
     <g id="line2d_4">
      <g>
       <use xlink:href="#mc1da66a1f5" x="548.27625" y="231.849187" style="fill: #262626; stroke: #262626; stroke-width: 0.8"/>
      </g>
     </g>
     <g id="text_4">
      <!-- NumPy -->
      <g style="fill: #262626" transform="translate(517.708711 250.652) scale(0.165 -0.165)">
       <defs>
        <path id="DejaVuSerif-4e" d="M 313 0 
L 313 331 
L 941 331 
L 941 4331 
L 313 4331 
L 313 4666 
L 1509 4666 
L 4306 984 
L 4306 4331 
L 3681 4331 
L 3681 4666 
L 5319 4666 
L 5319 4331 
L 4691 4331 
L 4691 -91 
L 4313 -91 
L 1325 3841 
L 1325 331 
L 1953 331 
L 1953 0 
L 313 0 
z
" transform="scale(0.015625)"/>
        <path id="DejaVuSerif-75" d="M 2266 3322 
L 3341 3322 
L 3341 331 
L 3884 331 
L 3884 0 
L 2766 0 
L 2766 588 
Q 2606 256 2353 82 
Q 2100 -91 1766 -91 
Q 1213 -91 952 223 
Q 691 538 691 1209 
L 691 2988 
L 172 2988 
L 172 3322 
L 1269 3322 
L 1269 1388 
Q 1269 781 1417 556 
Q 1566 331 1947 331 
Q 2347 331 2556 625 
Q 2766 919 2766 1478 
L 2766 2988 
L 2266 2988 
L 2266 3322 
z
" transform="scale(0.015625)"/>
        <path id="DejaVuSerif-50" d="M 1581 2375 
L 2406 2375 
Q 2872 2375 3115 2626 
Q 3359 2878 3359 3353 
Q 3359 3831 3115 4081 
Q 2872 4331 2406 4331 
L 1581 4331 
L 1581 2375 
z
M 353 0 
L 353 331 
L 947 331 
L 947 4331 
L 353 4331 
L 353 4666 
L 2559 4666 
Q 3259 4666 3668 4311 
Q 4078 3956 4078 3353 
Q 4078 2753 3668 2397 
Q 3259 2041 2559 2041 
L 1581 2041 
L 1581 331 
L 2303 331 
L 2303 0 
L 353 0 
z
" transform="scale(0.015625)"/>
       </defs>
       <use xlink:href="#DejaVuSerif-4e"/>
       <use xlink:href="#DejaVuSerif-75" transform="translate(87.5 0)"/>
       <use xlink:href="#DejaVuSerif-6d" transform="translate(151.904297 0)"/>
       <use xlink:href="#DejaVuSerif-50" transform="translate(246.728516 0)"/>
       <use xlink:href="#DejaVuSerif-79" transform="translate(314.013672 0)"/>
      </g>
     </g>
    </g>
    <g id="text_5">
     <!-- Parallel framework -->
     <g style="fill: #262626" transform="translate(254.604844 290.706281) scale(0.18 -0.18)">
      <defs>
       <path id="DejaVuSerif-6c" d="M 1313 331 
L 1856 331 
L 1856 0 
L 184 0 
L 184 331 
L 738 331 
L 738 4531 
L 184 4531 
L 184 4863 
L 1313 4863 
L 1313 331 
z
" transform="scale(0.015625)"/>
       <path id="DejaVuSerif-20" transform="scale(0.015625)"/>
       <path id="DejaVuSerif-66" d="M 2753 4078 
L 2450 4078 
Q 2447 4313 2317 4434 
Q 2188 4556 1941 4556 
Q 1619 4556 1487 4379 
Q 1356 4203 1356 3750 
L 1356 3322 
L 2284 3322 
L 2284 2988 
L 1356 2988 
L 1356 331 
L 2094 331 
L 2094 0 
L 231 0 
L 231 331 
L 781 331 
L 781 2988 
L 231 2988 
L 231 3322 
L 781 3322 
L 781 3738 
Q 781 4294 1070 4578 
Q 1359 4863 1919 4863 
Q 2128 4863 2337 4825 
Q 2547 4788 2753 4709 
L 2753 4078 
z
" transform="scale(0.015625)"/>
       <path id="DejaVuSerif-77" d="M 3072 3322 
L 3922 728 
L 4672 2988 
L 4191 2988 
L 4191 3322 
L 5394 3322 
L 5394 2988 
L 5025 2988 
L 4038 0 
L 3559 0 
L 2741 2484 
L 1919 0 
L 1459 0 
L 475 2988 
L 103 2988 
L 103 3322 
L 1606 3322 
L 1606 2988 
L 1069 2988 
L 1813 728 
L 2669 3322 
L 3072 3322 
z
" transform="scale(0.015625)"/>
       <path id="DejaVuSerif-6b" d="M 1831 0 
L 219 0 
L 219 331 
L 738 331 
L 738 4531 
L 184 4531 
L 184 4863 
L 1313 4863 
L 1313 1697 
L 2713 2988 
L 2234 2988 
L 2234 3322 
L 3738 3322 
L 3738 2988 
L 3169 2988 
L 2181 2075 
L 3444 331 
L 3922 331 
L 3922 0 
L 2284 0 
L 2284 331 
L 2759 331 
L 1766 1697 
L 1313 1275 
L 1313 331 
L 1831 331 
L 1831 0 
z
" transform="scale(0.015625)"/>
      </defs>
      <use xlink:href="#DejaVuSerif-50"/>
      <use xlink:href="#DejaVuSerif-61" transform="translate(62.785156 0)"/>
      <use xlink:href="#DejaVuSerif-72" transform="translate(122.404297 0)"/>
      <use xlink:href="#DejaVuSerif-61" transform="translate(170.207031 0)"/>
      <use xlink:href="#DejaVuSerif-6c" transform="translate(229.826172 0)"/>
      <use xlink:href="#DejaVuSerif-6c" transform="translate(261.808594 0)"/>
      <use xlink:href="#DejaVuSerif-65" transform="translate(293.791016 0)"/>
      <use xlink:href="#DejaVuSerif-6c" transform="translate(352.970703 0)"/>
      <use xlink:href="#DejaVuSerif-20" transform="translate(384.953125 0)"/>
      <use xlink:href="#DejaVuSerif-66" transform="translate(416.740234 0)"/>
      <use xlink:href="#DejaVuSerif-72" transform="translate(453.751953 0)"/>
      <use xlink:href="#DejaVuSerif-61" transform="translate(501.554688 0)"/>
      <use xlink:href="#DejaVuSerif-6d" transform="translate(561.173828 0)"/>
      <use xlink:href="#DejaVuSerif-65" transform="translate(655.998047 0)"/>
      <use xlink:href="#DejaVuSerif-77" transform="translate(715.177734 0)"/>
      <use xlink:href="#DejaVuSerif-6f" transform="translate(800.773438 0)"/>
      <use xlink:href="#DejaVuSerif-72" transform="translate(860.978516 0)"/>
      <use xlink:href="#DejaVuSerif-6b" transform="translate(908.78125 0)"/>
     </g>
    </g>
   </g>
   <g id="matplotlib.axis_2">
    <g id="ytick_1">
     <g id="line2d_5">
      <path d="M 66.615 231.849187 
L 617.085 231.849187 
" clip-path="url(#pd48c92e1a4)" style="fill: none; stroke: #808080; stroke-opacity: 0.5; stroke-width: 0.5; stroke-linecap: round"/>
     </g>
     <g id="line2d_6">
      <defs>
       <path id="mac15929aa3" d="M 0 0 
L -3 0 
" style="stroke: #262626; stroke-width: 0.8"/>
      </defs>
      <g>
       <use xlink:href="#mac15929aa3" x="66.615" y="231.849187" style="fill: #262626; stroke: #262626; stroke-width: 0.8"/>
      </g>
     </g>
     <g id="text_6">
      <!-- 0 -->
      <g style="fill: #262626" transform="translate(49.616875 238.117898) scale(0.165 -0.165)">
       <defs>
        <path id="DejaVuSerif-30" d="M 2034 219 
Q 2513 219 2750 744 
Q 2988 1269 2988 2328 
Q 2988 3391 2750 3916 
Q 2513 4441 2034 4441 
Q 1556 4441 1318 3916 
Q 1081 3391 1081 2328 
Q 1081 1269 1318 744 
Q 1556 219 2034 219 
z
M 2034 -91 
Q 1275 -91 848 546 
Q 422 1184 422 2328 
Q 422 3475 848 4112 
Q 1275 4750 2034 4750 
Q 2797 4750 3222 4112 
Q 3647 3475 3647 2328 
Q 3647 1184 3222 546 
Q 2797 -91 2034 -91 
z
" transform="scale(0.015625)"/>
       </defs>
       <use xlink:href="#DejaVuSerif-30"/>
      </g>
     </g>
    </g>
    <g id="ytick_2">
     <g id="line2d_7">
      <path d="M 66.615 197.687187 
L 617.085 197.687187 
" clip-path="url(#pd48c92e1a4)" style="fill: none; stroke: #808080; stroke-opacity: 0.5; stroke-width: 0.5; stroke-linecap: round"/>
     </g>
     <g id="line2d_8">
      <g>
       <use xlink:href="#mac15929aa3" x="66.615" y="197.687187" style="fill: #262626; stroke: #262626; stroke-width: 0.8"/>
      </g>
     </g>
     <g id="text_7">
      <!-- 20 -->
      <g style="fill: #262626" transform="translate(39.11875 203.955898) scale(0.165 -0.165)">
       <defs>
        <path id="DejaVuSerif-32" d="M 819 3553 
L 469 3553 
L 469 4384 
Q 803 4563 1142 4656 
Q 1481 4750 1806 4750 
Q 2534 4750 2956 4397 
Q 3378 4044 3378 3438 
Q 3378 2753 2422 1800 
Q 2347 1728 2309 1691 
L 1131 513 
L 3078 513 
L 3078 1088 
L 3444 1088 
L 3444 0 
L 434 0 
L 434 341 
L 1850 1753 
Q 2319 2222 2519 2614 
Q 2719 3006 2719 3438 
Q 2719 3909 2473 4175 
Q 2228 4441 1797 4441 
Q 1350 4441 1106 4219 
Q 863 3997 819 3553 
z
" transform="scale(0.015625)"/>
       </defs>
       <use xlink:href="#DejaVuSerif-32"/>
       <use xlink:href="#DejaVuSerif-30" transform="translate(63.623047 0)"/>
      </g>
     </g>
    </g>
    <g id="ytick_3">
     <g id="line2d_9">
      <path d="M 66.615 163.525187 
L 617.085 163.525187 
" clip-path="url(#pd48c92e1a4)" style="fill: none; stroke: #808080; stroke-opacity: 0.5; stroke-width: 0.5; stroke-linecap: round"/>
     </g>
     <g id="line2d_10">
      <g>
       <use xlink:href="#mac15929aa3" x="66.615" y="163.525187" style="fill: #262626; stroke: #262626; stroke-width: 0.8"/>
      </g>
     </g>
     <g id="text_8">
      <!-- 40 -->
      <g style="fill: #262626" transform="translate(39.11875 169.793898) scale(0.165 -0.165)">
       <use xlink:href="#DejaVuSerif-34"/>
       <use xlink:href="#DejaVuSerif-30" transform="translate(63.623047 0)"/>
      </g>
     </g>
    </g>
    <g id="ytick_4">
     <g id="line2d_11">
      <path d="M 66.615 129.363187 
L 617.085 129.363187 
" clip-path="url(#pd48c92e1a4)" style="fill: none; stroke: #808080; stroke-opacity: 0.5; stroke-width: 0.5; stroke-linecap: round"/>
     </g>
     <g id="line2d_12">
      <g>
       <use xlink:href="#mac15929aa3" x="66.615" y="129.363187" style="fill: #262626; stroke: #262626; stroke-width: 0.8"/>
      </g>
     </g>
     <g id="text_9">
      <!-- 60 -->
      <g style="fill: #262626" transform="translate(39.11875 135.631898) scale(0.165 -0.165)">
       <defs>
        <path id="DejaVuSerif-36" d="M 2094 219 
Q 2534 219 2771 542 
Q 3009 866 3009 1472 
Q 3009 2078 2771 2401 
Q 2534 2725 2094 2725 
Q 1647 2725 1412 2412 
Q 1178 2100 1178 1509 
Q 1178 888 1415 553 
Q 1653 219 2094 219 
z
M 1075 2569 
Q 1288 2803 1556 2918 
Q 1825 3034 2163 3034 
Q 2859 3034 3264 2615 
Q 3669 2197 3669 1472 
Q 3669 763 3233 336 
Q 2797 -91 2069 -91 
Q 1278 -91 853 498 
Q 428 1088 428 2181 
Q 428 3406 931 4078 
Q 1434 4750 2350 4750 
Q 2597 4750 2869 4703 
Q 3141 4656 3425 4563 
L 3425 3794 
L 3072 3794 
Q 3034 4109 2831 4275 
Q 2628 4441 2284 4441 
Q 1678 4441 1381 3981 
Q 1084 3522 1075 2569 
z
" transform="scale(0.015625)"/>
       </defs>
       <use xlink:href="#DejaVuSerif-36"/>
       <use xlink:href="#DejaVuSerif-30" transform="translate(63.623047 0)"/>
      </g>
     </g>
    </g>
    <g id="ytick_5">
     <g id="line2d_13">
      <path d="M 66.615 95.201188 
L 617.085 95.201188 
" clip-path="url(#pd48c92e1a4)" style="fill: none; stroke: #808080; stroke-opacity: 0.5; stroke-width: 0.5; stroke-linecap: round"/>
     </g>
     <g id="line2d_14">
      <g>
       <use xlink:href="#mac15929aa3" x="66.615" y="95.201188" style="fill: #262626; stroke: #262626; stroke-width: 0.8"/>
      </g>
     </g>
     <g id="text_10">
      <!-- 80 -->
      <g style="fill: #262626" transform="translate(39.11875 101.469898) scale(0.165 -0.165)">
       <defs>
        <path id="DejaVuSerif-38" d="M 2981 1275 
Q 2981 1775 2732 2051 
Q 2484 2328 2034 2328 
Q 1584 2328 1336 2051 
Q 1088 1775 1088 1275 
Q 1088 772 1336 495 
Q 1584 219 2034 219 
Q 2484 219 2732 495 
Q 2981 772 2981 1275 
z
M 2853 3541 
Q 2853 3966 2637 4203 
Q 2422 4441 2034 4441 
Q 1650 4441 1433 4203 
Q 1216 3966 1216 3541 
Q 1216 3113 1433 2875 
Q 1650 2638 2034 2638 
Q 2422 2638 2637 2875 
Q 2853 3113 2853 3541 
z
M 2516 2484 
Q 3047 2413 3344 2092 
Q 3641 1772 3641 1275 
Q 3641 619 3225 264 
Q 2809 -91 2034 -91 
Q 1263 -91 845 264 
Q 428 619 428 1275 
Q 428 1772 725 2092 
Q 1022 2413 1556 2484 
Q 1084 2569 832 2842 
Q 581 3116 581 3541 
Q 581 4103 968 4426 
Q 1356 4750 2034 4750 
Q 2713 4750 3100 4426 
Q 3488 4103 3488 3541 
Q 3488 3116 3236 2842 
Q 2984 2569 2516 2484 
z
" transform="scale(0.015625)"/>
       </defs>
       <use xlink:href="#DejaVuSerif-38"/>
       <use xlink:href="#DejaVuSerif-30" transform="translate(63.623047 0)"/>
      </g>
     </g>
    </g>
    <g id="ytick_6">
     <g id="line2d_15">
      <path d="M 66.615 61.039187 
L 617.085 61.039187 
" clip-path="url(#pd48c92e1a4)" style="fill: none; stroke: #808080; stroke-opacity: 0.5; stroke-width: 0.5; stroke-linecap: round"/>
     </g>
     <g id="line2d_16">
      <g>
       <use xlink:href="#mac15929aa3" x="66.615" y="61.039187" style="fill: #262626; stroke: #262626; stroke-width: 0.8"/>
      </g>
     </g>
     <g id="text_11">
      <!-- 100 -->
      <g style="fill: #262626" transform="translate(28.620625 67.307898) scale(0.165 -0.165)">
       <defs>
        <path id="DejaVuSerif-31" d="M 909 0 
L 909 331 
L 1722 331 
L 1722 4213 
L 781 3603 
L 781 4013 
L 1919 4750 
L 2350 4750 
L 2350 331 
L 3163 331 
L 3163 0 
L 909 0 
z
" transform="scale(0.015625)"/>
       </defs>
       <use xlink:href="#DejaVuSerif-31"/>
       <use xlink:href="#DejaVuSerif-30" transform="translate(63.623047 0)"/>
       <use xlink:href="#DejaVuSerif-30" transform="translate(127.246094 0)"/>
      </g>
     </g>
    </g>
    <g id="ytick_7">
     <g id="line2d_17">
      <path d="M 66.615 26.877187 
L 617.085 26.877187 
" clip-path="url(#pd48c92e1a4)" style="fill: none; stroke: #808080; stroke-opacity: 0.5; stroke-width: 0.5; stroke-linecap: round"/>
     </g>
     <g id="line2d_18">
      <g>
       <use xlink:href="#mac15929aa3" x="66.615" y="26.877187" style="fill: #262626; stroke: #262626; stroke-width: 0.8"/>
      </g>
     </g>
     <g id="text_12">
      <!-- 120 -->
      <g style="fill: #262626" transform="translate(28.620625 33.145898) scale(0.165 -0.165)">
       <use xlink:href="#DejaVuSerif-31"/>
       <use xlink:href="#DejaVuSerif-32" transform="translate(63.623047 0)"/>
       <use xlink:href="#DejaVuSerif-30" transform="translate(127.246094 0)"/>
      </g>
     </g>
    </g>
    <g id="text_13">
     <!-- Execution time (s) -->
     <g style="fill: #262626" transform="translate(20.877188 212.600531) rotate(-90) scale(0.18 -0.18)">
      <defs>
       <path id="DejaVuSerif-45" d="M 353 0 
L 353 331 
L 947 331 
L 947 4331 
L 353 4331 
L 353 4666 
L 4109 4666 
L 4109 3628 
L 3725 3628 
L 3725 4281 
L 1581 4281 
L 1581 2719 
L 3109 2719 
L 3109 3303 
L 3494 3303 
L 3494 1753 
L 3109 1753 
L 3109 2338 
L 1581 2338 
L 1581 384 
L 3775 384 
L 3775 1038 
L 4159 1038 
L 4159 0 
L 353 0 
z
" transform="scale(0.015625)"/>
       <path id="DejaVuSerif-78" d="M 1863 2028 
L 2559 2988 
L 2113 2988 
L 2113 3322 
L 3391 3322 
L 3391 2988 
L 2950 2988 
L 2059 1759 
L 3097 331 
L 3531 331 
L 3531 0 
L 1997 0 
L 1997 331 
L 2419 331 
L 1697 1325 
L 972 331 
L 1403 331 
L 1403 0 
L 141 0 
L 141 331 
L 581 331 
L 1497 1594 
L 488 2988 
L 78 2988 
L 78 3322 
L 1563 3322 
L 1563 2988 
L 1166 2988 
L 1863 2028 
z
" transform="scale(0.015625)"/>
       <path id="DejaVuSerif-28" d="M 2041 -997 
Q 1281 -656 893 83 
Q 506 822 506 1931 
Q 506 3044 893 3783 
Q 1281 4522 2041 4863 
L 2041 4556 
Q 1559 4225 1350 3623 
Q 1141 3022 1141 1931 
Q 1141 844 1350 242 
Q 1559 -359 2041 -691 
L 2041 -997 
z
" transform="scale(0.015625)"/>
       <path id="DejaVuSerif-29" d="M 453 -997 
L 453 -691 
Q 934 -359 1145 242 
Q 1356 844 1356 1931 
Q 1356 3022 1145 3623 
Q 934 4225 453 4556 
L 453 4863 
Q 1216 4522 1603 3783 
Q 1991 3044 1991 1931 
Q 1991 822 1603 83 
Q 1216 -656 453 -997 
z
" transform="scale(0.015625)"/>
      </defs>
      <use xlink:href="#DejaVuSerif-45"/>
      <use xlink:href="#DejaVuSerif-78" transform="translate(72.998047 0)"/>
      <use xlink:href="#DejaVuSerif-65" transform="translate(129.394531 0)"/>
      <use xlink:href="#DejaVuSerif-63" transform="translate(188.574219 0)"/>
      <use xlink:href="#DejaVuSerif-75" transform="translate(244.580078 0)"/>
      <use xlink:href="#DejaVuSerif-74" transform="translate(308.984375 0)"/>
      <use xlink:href="#DejaVuSerif-69" transform="translate(349.169922 0)"/>
      <use xlink:href="#DejaVuSerif-6f" transform="translate(381.152344 0)"/>
      <use xlink:href="#DejaVuSerif-6e" transform="translate(441.357422 0)"/>
      <use xlink:href="#DejaVuSerif-20" transform="translate(505.761719 0)"/>
      <use xlink:href="#DejaVuSerif-74" transform="translate(537.548828 0)"/>
      <use xlink:href="#DejaVuSerif-69" transform="translate(577.734375 0)"/>
      <use xlink:href="#DejaVuSerif-6d" transform="translate(609.716797 0)"/>
      <use xlink:href="#DejaVuSerif-65" transform="translate(704.541016 0)"/>
      <use xlink:href="#DejaVuSerif-20" transform="translate(763.720703 0)"/>
      <use xlink:href="#DejaVuSerif-28" transform="translate(795.507812 0)"/>
      <use xlink:href="#DejaVuSerif-73" transform="translate(834.521484 0)"/>
      <use xlink:href="#DejaVuSerif-29" transform="translate(885.839844 0)"/>
     </g>
    </g>
   </g>
   <g id="patch_3">
    <path d="M 80.37675 231.849187 
L 107.90025 231.849187 
L 107.90025 58.306188 
L 80.37675 58.306188 
z
" clip-path="url(#pd48c92e1a4)" style="fill: #7798ec; stroke: #ffffff; stroke-linejoin: miter"/>
   </g>
   <g id="patch_4">
    <path d="M 217.99425 231.849187 
L 245.51775 231.849187 
L 245.51775 47.049715 
L 217.99425 47.049715 
z
" clip-path="url(#pd48c92e1a4)" style="fill: #7798ec; stroke: #ffffff; stroke-linejoin: miter"/>
   </g>
   <g id="patch_5">
    <path d="M 355.61175 231.849187 
L 383.13525 231.849187 
L 383.13525 88.424011 
L 355.61175 88.424011 
z
" clip-path="url(#pd48c92e1a4)" style="fill: #7798ec; stroke: #ffffff; stroke-linejoin: miter"/>
   </g>
   <g id="patch_6">
    <path d="M 493.22925 231.849187 
L 520.75275 231.849187 
L 520.75275 223.473063 
L 493.22925 223.473063 
z
" clip-path="url(#pd48c92e1a4)" style="fill: #7798ec; stroke: #ffffff; stroke-linejoin: miter"/>
   </g>
   <g id="patch_7">
    <path d="M 107.90025 231.849187 
L 135.42375 231.849187 
L 135.42375 146.49466 
L 107.90025 146.49466 
z
" clip-path="url(#pd48c92e1a4)" style="fill: #8470de; stroke: #ffffff; stroke-linejoin: miter"/>
   </g>
   <g id="patch_8">
    <path d="M 245.51775 231.849187 
L 273.04125 231.849187 
L 273.04125 139.211238 
L 245.51775 139.211238 
z
" clip-path="url(#pd48c92e1a4)" style="fill: #8470de; stroke: #ffffff; stroke-linejoin: miter"/>
   </g>
   <g id="patch_9">
    <path d="M 383.13525 231.849187 
L 410.65875 231.849187 
L 410.65875 160.931916 
L 383.13525 160.931916 
z
" clip-path="url(#pd48c92e1a4)" style="fill: #8470de; stroke: #ffffff; stroke-linejoin: miter"/>
   </g>
   <g id="patch_10">
    <path d="M 520.75275 231.849187 
L 548.27625 231.849187 
L 548.27625 214.549038 
L 520.75275 214.549038 
z
" clip-path="url(#pd48c92e1a4)" style="fill: #8470de; stroke: #ffffff; stroke-linejoin: miter"/>
   </g>
   <g id="patch_11">
    <path d="M 135.42375 231.849187 
L 162.94725 231.849187 
L 162.94725 185.016136 
L 135.42375 185.016136 
z
" clip-path="url(#pd48c92e1a4)" style="fill: #c53d7f; stroke: #ffffff; stroke-linejoin: miter"/>
   </g>
   <g id="patch_12">
    <path d="M 273.04125 231.849187 
L 300.56475 231.849187 
L 300.56475 185.462141 
L 273.04125 185.462141 
z
" clip-path="url(#pd48c92e1a4)" style="fill: #c53d7f; stroke: #ffffff; stroke-linejoin: miter"/>
   </g>
   <g id="patch_13">
    <path d="M 410.65875 231.849187 
L 438.18225 231.849187 
L 438.18225 196.410036 
L 410.65875 196.410036 
z
" clip-path="url(#pd48c92e1a4)" style="fill: #c53d7f; stroke: #ffffff; stroke-linejoin: miter"/>
   </g>
   <g id="patch_14">
    <path d="M 548.27625 231.849187 
L 575.79975 231.849187 
L 575.79975 221.822267 
L 548.27625 221.822267 
z
" clip-path="url(#pd48c92e1a4)" style="fill: #c53d7f; stroke: #ffffff; stroke-linejoin: miter"/>
   </g>
   <g id="patch_15">
    <path d="M 162.94725 231.849187 
L 190.47075 231.849187 
L 190.47075 208.658442 
L 162.94725 208.658442 
z
" clip-path="url(#pd48c92e1a4)" style="fill: #de6920; stroke: #ffffff; stroke-linejoin: miter"/>
   </g>
   <g id="patch_16">
    <path d="M 300.56475 231.849187 
L 328.08825 231.849187 
L 328.08825 207.825666 
L 300.56475 207.825666 
z
" clip-path="url(#pd48c92e1a4)" style="fill: #de6920; stroke: #ffffff; stroke-linejoin: miter"/>
   </g>
   <g id="patch_17">
    <path d="M 438.18225 231.849187 
L 465.70575 231.849187 
L 465.70575 214.526292 
L 438.18225 214.526292 
z
" clip-path="url(#pd48c92e1a4)" style="fill: #de6920; stroke: #ffffff; stroke-linejoin: miter"/>
   </g>
   <g id="patch_18">
    <path d="M 575.79975 231.849187 
L 603.32325 231.849187 
L 603.32325 225.008782 
L 575.79975 225.008782 
z
" clip-path="url(#pd48c92e1a4)" style="fill: #de6920; stroke: #ffffff; stroke-linejoin: miter"/>
   </g>
   <g id="patch_19">
    <path d="M 135.42375 231.849187 
L 135.42375 231.849187 
L 135.42375 231.849187 
L 135.42375 231.849187 
z
" clip-path="url(#pd48c92e1a4)" style="fill: #7798ec; stroke: #ffffff; stroke-linejoin: miter"/>
   </g>
   <g id="patch_20">
    <path d="M 135.42375 231.849187 
L 135.42375 231.849187 
L 135.42375 231.849187 
L 135.42375 231.849187 
z
" clip-path="url(#pd48c92e1a4)" style="fill: #8470de; stroke: #ffffff; stroke-linejoin: miter"/>
   </g>
   <g id="patch_21">
    <path d="M 135.42375 231.849187 
L 135.42375 231.849187 
L 135.42375 231.849187 
L 135.42375 231.849187 
z
" clip-path="url(#pd48c92e1a4)" style="fill: #c53d7f; stroke: #ffffff; stroke-linejoin: miter"/>
   </g>
   <g id="patch_22">
    <path d="M 135.42375 231.849187 
L 135.42375 231.849187 
L 135.42375 231.849187 
L 135.42375 231.849187 
z
" clip-path="url(#pd48c92e1a4)" style="fill: #de6920; stroke: #ffffff; stroke-linejoin: miter"/>
   </g>
   <g id="line2d_19">
    <path d="M 92.418281 68.177476 
L 95.858719 68.177476 
M 94.1385 68.177476 
L 94.1385 47.342354 
M 92.418281 47.342354 
L 95.858719 47.342354 
" clip-path="url(#pd48c92e1a4)" style="fill: none; stroke: #000000; stroke-linecap: round"/>
   </g>
   <g id="line2d_20">
    <path d="M 230.035781 49.679255 
L 233.476219 49.679255 
M 231.756 49.679255 
L 231.756 44.582121 
M 230.035781 44.582121 
L 233.476219 44.582121 
" clip-path="url(#pd48c92e1a4)" style="fill: none; stroke: #000000; stroke-linecap: round"/>
   </g>
   <g id="line2d_21">
    <path d="M 367.653281 97.120409 
L 371.093719 97.120409 
M 369.3735 97.120409 
L 369.3735 70.988024 
M 367.653281 70.988024 
L 371.093719 70.988024 
" clip-path="url(#pd48c92e1a4)" style="fill: none; stroke: #000000; stroke-linecap: round"/>
   </g>
   <g id="line2d_22">
    <path d="M 505.270781 225.072142 
L 508.711219 225.072142 
M 506.991 225.072142 
L 506.991 221.510506 
M 505.270781 221.510506 
L 508.711219 221.510506 
" clip-path="url(#pd48c92e1a4)" style="fill: none; stroke: #000000; stroke-linecap: round"/>
   </g>
   <g id="line2d_23">
    <path d="M 119.941781 154.009496 
L 123.382219 154.009496 
M 121.662 154.009496 
L 121.662 137.824001 
M 119.941781 137.824001 
L 123.382219 137.824001 
" clip-path="url(#pd48c92e1a4)" style="fill: none; stroke: #000000; stroke-linecap: round"/>
   </g>
   <g id="line2d_24">
    <path d="M 257.559281 147.538965 
L 260.999719 147.538965 
M 259.2795 147.538965 
L 259.2795 133.48931 
M 257.559281 133.48931 
L 260.999719 133.48931 
" clip-path="url(#pd48c92e1a4)" style="fill: none; stroke: #000000; stroke-linecap: round"/>
   </g>
   <g id="line2d_25">
    <path d="M 395.176781 162.710583 
L 398.617219 162.710583 
M 396.897 162.710583 
L 396.897 157.037122 
M 395.176781 157.037122 
L 398.617219 157.037122 
" clip-path="url(#pd48c92e1a4)" style="fill: none; stroke: #000000; stroke-linecap: round"/>
   </g>
   <g id="line2d_26">
    <path d="M 532.794281 217.014214 
L 536.234719 217.014214 
M 534.5145 217.014214 
L 534.5145 212.617022 
M 532.794281 212.617022 
L 536.234719 212.617022 
" clip-path="url(#pd48c92e1a4)" style="fill: none; stroke: #000000; stroke-linecap: round"/>
   </g>
   <g id="line2d_27">
    <path d="M 147.465281 187.562358 
L 150.905719 187.562358 
M 149.1855 187.562358 
L 149.1855 183.372872 
M 147.465281 183.372872 
L 150.905719 183.372872 
" clip-path="url(#pd48c92e1a4)" style="fill: none; stroke: #000000; stroke-linecap: round"/>
   </g>
   <g id="line2d_28">
    <path d="M 285.082781 191.924178 
L 288.523219 191.924178 
M 286.803 191.924178 
L 286.803 182.705395 
M 285.082781 182.705395 
L 288.523219 182.705395 
" clip-path="url(#pd48c92e1a4)" style="fill: none; stroke: #000000; stroke-linecap: round"/>
   </g>
   <g id="line2d_29">
    <path d="M 422.700281 198.510813 
L 426.140719 198.510813 
M 424.4205 198.510813 
L 424.4205 193.035054 
M 422.700281 193.035054 
L 426.140719 193.035054 
" clip-path="url(#pd48c92e1a4)" style="fill: none; stroke: #000000; stroke-linecap: round"/>
   </g>
   <g id="line2d_30">
    <path d="M 560.317781 225.827855 
L 563.758219 225.827855 
M 562.038 225.827855 
L 562.038 217.530486 
M 560.317781 217.530486 
L 563.758219 217.530486 
" clip-path="url(#pd48c92e1a4)" style="fill: none; stroke: #000000; stroke-linecap: round"/>
   </g>
   <g id="line2d_31">
    <path d="M 174.988781 208.901911 
L 178.429219 208.901911 
M 176.709 208.901911 
L 176.709 208.321733 
M 174.988781 208.321733 
L 178.429219 208.321733 
" clip-path="url(#pd48c92e1a4)" style="fill: none; stroke: #000000; stroke-linecap: round"/>
   </g>
   <g id="line2d_32">
    <path d="M 312.606281 208.577087 
L 316.046719 208.577087 
M 314.3265 208.577087 
L 314.3265 206.178247 
M 312.606281 206.178247 
L 316.046719 206.178247 
" clip-path="url(#pd48c92e1a4)" style="fill: none; stroke: #000000; stroke-linecap: round"/>
   </g>
   <g id="line2d_33">
    <path d="M 450.223781 216.296821 
L 453.664219 216.296821 
M 451.944 216.296821 
L 451.944 212.807571 
M 450.223781 212.807571 
L 453.664219 212.807571 
" clip-path="url(#pd48c92e1a4)" style="fill: none; stroke: #000000; stroke-linecap: round"/>
   </g>
   <g id="line2d_34">
    <path d="M 587.841281 226.284724 
L 591.281719 226.284724 
M 589.5615 226.284724 
L 589.5615 224.56954 
M 587.841281 224.56954 
L 591.281719 224.56954 
" clip-path="url(#pd48c92e1a4)" style="fill: none; stroke: #000000; stroke-linecap: round"/>
   </g>
   <g id="patch_23">
    <path d="M 66.615 231.849187 
L 66.615 26.877187 
" style="fill: none; stroke: #262626; stroke-width: 0.8; stroke-linejoin: miter; stroke-linecap: square"/>
   </g>
   <g id="patch_24">
    <path d="M 617.085 231.849187 
L 617.085 26.877187 
" style="fill: none; stroke: #262626; stroke-width: 0.8; stroke-linejoin: miter; stroke-linecap: square"/>
   </g>
   <g id="patch_25">
    <path d="M 66.615 231.849187 
L 617.085 231.849187 
" style="fill: none; stroke: #262626; stroke-width: 0.8; stroke-linejoin: miter; stroke-linecap: square"/>
   </g>
   <g id="patch_26">
    <path d="M 66.615 26.877187 
L 617.085 26.877187 
" style="fill: none; stroke: #262626; stroke-width: 0.8; stroke-linejoin: miter; stroke-linecap: square"/>
   </g>
   <g id="text_14">
    <!-- Pi-Approximation: Python v3.14 GIL-free thread scaling -->
    <g style="fill: #262626" transform="translate(87.781406 20.877187) scale(0.18 -0.18)">
     <defs>
      <path id="DejaVuSerif-41" d="M 1281 1691 
L 2994 1691 
L 2138 3909 
L 1281 1691 
z
M -38 0 
L -38 331 
L 372 331 
L 2034 4666 
L 2559 4666 
L 4225 331 
L 4684 331 
L 4684 0 
L 2988 0 
L 2988 331 
L 3506 331 
L 3116 1356 
L 1153 1356 
L 763 331 
L 1275 331 
L 1275 0 
L -38 0 
z
" transform="scale(0.015625)"/>
      <path id="DejaVuSerif-3a" d="M 666 325 
Q 666 500 786 622 
Q 906 744 1081 744 
Q 1256 744 1376 622 
Q 1497 500 1497 325 
Q 1497 150 1378 29 
Q 1259 -91 1081 -91 
Q 903 -91 784 29 
Q 666 150 666 325 
z
M 666 2363 
Q 666 2538 786 2658 
Q 906 2778 1081 2778 
Q 1259 2778 1378 2659 
Q 1497 2541 1497 2363 
Q 1497 2184 1378 2065 
Q 1259 1947 1081 1947 
Q 906 1947 786 2067 
Q 666 2188 666 2363 
z
" transform="scale(0.015625)"/>
      <path id="DejaVuSerif-76" d="M 1581 0 
L 359 2988 
L -19 2988 
L -19 3322 
L 1509 3322 
L 1509 2988 
L 978 2988 
L 1913 703 
L 2847 2988 
L 2350 2988 
L 2350 3322 
L 3597 3322 
L 3597 2988 
L 3225 2988 
L 2003 0 
L 1581 0 
z
" transform="scale(0.015625)"/>
      <path id="DejaVuSerif-33" d="M 622 4469 
Q 988 4606 1323 4678 
Q 1659 4750 1953 4750 
Q 2638 4750 3022 4454 
Q 3406 4159 3406 3634 
Q 3406 3213 3140 2930 
Q 2875 2647 2388 2547 
Q 2963 2466 3280 2130 
Q 3597 1794 3597 1259 
Q 3597 606 3158 257 
Q 2719 -91 1894 -91 
Q 1528 -91 1179 -12 
Q 831 66 488 225 
L 488 1131 
L 838 1131 
Q 869 681 1141 450 
Q 1413 219 1906 219 
Q 2384 219 2661 495 
Q 2938 772 2938 1253 
Q 2938 1803 2653 2086 
Q 2369 2369 1819 2369 
L 1522 2369 
L 1522 2688 
L 1678 2688 
Q 2225 2688 2498 2914 
Q 2772 3141 2772 3597 
Q 2772 4006 2547 4223 
Q 2322 4441 1900 4441 
Q 1478 4441 1245 4241 
Q 1013 4041 972 3647 
L 622 3647 
L 622 4469 
z
" transform="scale(0.015625)"/>
      <path id="DejaVuSerif-2e" d="M 603 325 
Q 603 500 722 622 
Q 841 744 1019 744 
Q 1191 744 1312 622 
Q 1434 500 1434 325 
Q 1434 153 1312 31 
Q 1191 -91 1019 -91 
Q 841 -91 722 29 
Q 603 150 603 325 
z
" transform="scale(0.015625)"/>
      <path id="DejaVuSerif-47" d="M 4097 3272 
Q 3988 3856 3641 4136 
Q 3294 4416 2675 4416 
Q 1869 4416 1472 3897 
Q 1075 3378 1075 2328 
Q 1075 1300 1484 772 
Q 1894 244 2688 244 
Q 3041 244 3362 331 
Q 3684 419 3975 594 
L 3975 1797 
L 3097 1797 
L 3097 2131 
L 4609 2131 
L 4609 391 
Q 4194 150 3714 29 
Q 3234 -91 2688 -91 
Q 1631 -91 995 570 
Q 359 1231 359 2328 
Q 359 3434 996 4092 
Q 1634 4750 2713 4750 
Q 3113 4750 3539 4658 
Q 3966 4566 4447 4378 
L 4447 3272 
L 4097 3272 
z
" transform="scale(0.015625)"/>
      <path id="DejaVuSerif-49" d="M 1581 331 
L 2175 331 
L 2175 0 
L 353 0 
L 353 331 
L 947 331 
L 947 4331 
L 353 4331 
L 353 4666 
L 2175 4666 
L 2175 4331 
L 1581 4331 
L 1581 331 
z
" transform="scale(0.015625)"/>
      <path id="DejaVuSerif-4c" d="M 353 0 
L 353 331 
L 947 331 
L 947 4331 
L 353 4331 
L 353 4666 
L 2175 4666 
L 2175 4331 
L 1581 4331 
L 1581 384 
L 3713 384 
L 3713 1166 
L 4097 1166 
L 4097 0 
L 353 0 
z
" transform="scale(0.015625)"/>
     </defs>
     <use xlink:href="#DejaVuSerif-50"/>
     <use xlink:href="#DejaVuSerif-69" transform="translate(67.285156 0)"/>
     <use xlink:href="#DejaVuSerif-2d" transform="translate(99.267578 0)"/>
     <use xlink:href="#DejaVuSerif-41" transform="translate(133.056641 0)"/>
     <use xlink:href="#DejaVuSerif-70" transform="translate(205.273438 0)"/>
     <use xlink:href="#DejaVuSerif-70" transform="translate(269.287109 0)"/>
     <use xlink:href="#DejaVuSerif-72" transform="translate(333.300781 0)"/>
     <use xlink:href="#DejaVuSerif-6f" transform="translate(381.103516 0)"/>
     <use xlink:href="#DejaVuSerif-78" transform="translate(441.308594 0)"/>
     <use xlink:href="#DejaVuSerif-69" transform="translate(497.705078 0)"/>
     <use xlink:href="#DejaVuSerif-6d" transform="translate(529.6875 0)"/>
     <use xlink:href="#DejaVuSerif-61" transform="translate(624.511719 0)"/>
     <use xlink:href="#DejaVuSerif-74" transform="translate(684.130859 0)"/>
     <use xlink:href="#DejaVuSerif-69" transform="translate(724.316406 0)"/>
     <use xlink:href="#DejaVuSerif-6f" transform="translate(756.298828 0)"/>
     <use xlink:href="#DejaVuSerif-6e" transform="translate(816.503906 0)"/>
     <use xlink:href="#DejaVuSerif-3a" transform="translate(880.908203 0)"/>
     <use xlink:href="#DejaVuSerif-20" transform="translate(914.599609 0)"/>
     <use xlink:href="#DejaVuSerif-50" transform="translate(946.386719 0)"/>
     <use xlink:href="#DejaVuSerif-79" transform="translate(1013.671875 0)"/>
     <use xlink:href="#DejaVuSerif-74" transform="translate(1070.166016 0)"/>
     <use xlink:href="#DejaVuSerif-68" transform="translate(1110.351562 0)"/>
     <use xlink:href="#DejaVuSerif-6f" transform="translate(1174.755859 0)"/>
     <use xlink:href="#DejaVuSerif-6e" transform="translate(1234.960938 0)"/>
     <use xlink:href="#DejaVuSerif-20" transform="translate(1299.365234 0)"/>
     <use xlink:href="#DejaVuSerif-76" transform="translate(1331.152344 0)"/>
     <use xlink:href="#DejaVuSerif-33" transform="translate(1387.646484 0)"/>
     <use xlink:href="#DejaVuSerif-2e" transform="translate(1451.269531 0)"/>
     <use xlink:href="#DejaVuSerif-31" transform="translate(1483.056641 0)"/>
     <use xlink:href="#DejaVuSerif-34" transform="translate(1546.679688 0)"/>
     <use xlink:href="#DejaVuSerif-20" transform="translate(1610.302734 0)"/>
     <use xlink:href="#DejaVuSerif-47" transform="translate(1642.089844 0)"/>
     <use xlink:href="#DejaVuSerif-49" transform="translate(1721.972656 0)"/>
     <use xlink:href="#DejaVuSerif-4c" transform="translate(1761.474609 0)"/>
     <use xlink:href="#DejaVuSerif-2d" transform="translate(1827.880859 0)"/>
     <use xlink:href="#DejaVuSerif-66" transform="translate(1861.669922 0)"/>
     <use xlink:href="#DejaVuSerif-72" transform="translate(1898.681641 0)"/>
     <use xlink:href="#DejaVuSerif-65" transform="translate(1946.484375 0)"/>
     <use xlink:href="#DejaVuSerif-65" transform="translate(2005.664062 0)"/>
     <use xlink:href="#DejaVuSerif-20" transform="translate(2064.84375 0)"/>
     <use xlink:href="#DejaVuSerif-74" transform="translate(2096.630859 0)"/>
     <use xlink:href="#DejaVuSerif-68" transform="translate(2136.816406 0)"/>
     <use xlink:href="#DejaVuSerif-72" transform="translate(2201.220703 0)"/>
     <use xlink:href="#DejaVuSerif-65" transform="translate(2249.023438 0)"/>
     <use xlink:href="#DejaVuSerif-61" transform="translate(2308.203125 0)"/>
     <use xlink:href="#DejaVuSerif-64" transform="translate(2367.822266 0)"/>
     <use xlink:href="#DejaVuSerif-20" transform="translate(2431.835938 0)"/>
     <use xlink:href="#DejaVuSerif-73" transform="translate(2463.623047 0)"/>
     <use xlink:href="#DejaVuSerif-63" transform="translate(2514.941406 0)"/>
     <use xlink:href="#DejaVuSerif-61" transform="translate(2570.947266 0)"/>
     <use xlink:href="#DejaVuSerif-6c" transform="translate(2630.566406 0)"/>
     <use xlink:href="#DejaVuSerif-69" transform="translate(2662.548828 0)"/>
     <use xlink:href="#DejaVuSerif-6e" transform="translate(2694.53125 0)"/>
     <use xlink:href="#DejaVuSerif-67" transform="translate(2758.935547 0)"/>
    </g>
   </g>
   <g id="legend_1">
    <g id="patch_27">
     <path d="M 425.226562 114.185625 
L 605.535 114.185625 
Q 608.835 114.185625 608.835 110.885625 
L 608.835 38.427188 
Q 608.835 35.127187 605.535 35.127187 
L 425.226562 35.127187 
Q 421.926562 35.127187 421.926562 38.427188 
L 421.926562 110.885625 
Q 421.926562 114.185625 425.226562 114.185625 
z
" style="fill: #ffffff; stroke: #cccccc; stroke-linejoin: miter"/>
    </g>
    <g id="text_15">
     <!-- Number of threads -->
     <g style="fill: #262626" transform="translate(428.526562 55.404375) scale(0.18 -0.18)">
      <defs>
       <path id="DejaVuSerif-62" d="M 738 331 
L 738 4531 
L 184 4531 
L 184 4863 
L 1313 4863 
L 1313 2803 
Q 1481 3116 1742 3264 
Q 2003 3413 2388 3413 
Q 3000 3413 3387 2928 
Q 3775 2444 3775 1663 
Q 3775 881 3387 395 
Q 3000 -91 2388 -91 
Q 2003 -91 1742 57 
Q 1481 206 1313 519 
L 1313 0 
L 184 0 
L 184 331 
L 738 331 
z
M 1313 1497 
Q 1313 897 1542 583 
Q 1772 269 2209 269 
Q 2650 269 2876 622 
Q 3103 975 3103 1663 
Q 3103 2353 2876 2703 
Q 2650 3053 2209 3053 
Q 1772 3053 1542 2737 
Q 1313 2422 1313 1825 
L 1313 1497 
z
" transform="scale(0.015625)"/>
      </defs>
      <use xlink:href="#DejaVuSerif-4e"/>
      <use xlink:href="#DejaVuSerif-75" transform="translate(87.5 0)"/>
      <use xlink:href="#DejaVuSerif-6d" transform="translate(151.904297 0)"/>
      <use xlink:href="#DejaVuSerif-62" transform="translate(246.728516 0)"/>
      <use xlink:href="#DejaVuSerif-65" transform="translate(310.742188 0)"/>
      <use xlink:href="#DejaVuSerif-72" transform="translate(369.921875 0)"/>
      <use xlink:href="#DejaVuSerif-20" transform="translate(417.724609 0)"/>
      <use xlink:href="#DejaVuSerif-6f" transform="translate(449.511719 0)"/>
      <use xlink:href="#DejaVuSerif-66" transform="translate(509.716797 0)"/>
      <use xlink:href="#DejaVuSerif-20" transform="translate(546.728516 0)"/>
      <use xlink:href="#DejaVuSerif-74" transform="translate(578.515625 0)"/>
      <use xlink:href="#DejaVuSerif-68" transform="translate(618.701172 0)"/>
      <use xlink:href="#DejaVuSerif-72" transform="translate(683.105469 0)"/>
      <use xlink:href="#DejaVuSerif-65" transform="translate(730.908203 0)"/>
      <use xlink:href="#DejaVuSerif-61" transform="translate(790.087891 0)"/>
      <use xlink:href="#DejaVuSerif-64" transform="translate(849.707031 0)"/>
      <use xlink:href="#DejaVuSerif-73" transform="translate(913.720703 0)"/>
     </g>
    </g>
    <g id="patch_28">
     <path d="M 442.182656 79.935234 
L 475.182656 79.935234 
L 475.182656 68.385234 
L 442.182656 68.385234 
z
" style="fill: #7798ec; stroke: #ffffff; stroke-linejoin: miter"/>
    </g>
    <g id="text_16">
     <!-- 1 -->
     <g style="fill: #262626" transform="translate(488.382656 79.935234) scale(0.165 -0.165)">
      <use xlink:href="#DejaVuSerif-31"/>
     </g>
    </g>
    <g id="patch_29">
     <path d="M 442.182656 104.154141 
L 475.182656 104.154141 
L 475.182656 92.604141 
L 442.182656 92.604141 
z
" style="fill: #8470de; stroke: #ffffff; stroke-linejoin: miter"/>
    </g>
    <g id="text_17">
     <!-- 2 -->
     <g style="fill: #262626" transform="translate(488.382656 104.154141) scale(0.165 -0.165)">
      <use xlink:href="#DejaVuSerif-32"/>
     </g>
    </g>
    <g id="patch_30">
     <path d="M 531.880781 79.935234 
L 564.880781 79.935234 
L 564.880781 68.385234 
L 531.880781 68.385234 
z
" style="fill: #c53d7f; stroke: #ffffff; stroke-linejoin: miter"/>
    </g>
    <g id="text_18">
     <!-- 4 -->
     <g style="fill: #262626" transform="translate(578.080781 79.935234) scale(0.165 -0.165)">
      <use xlink:href="#DejaVuSerif-34"/>
     </g>
    </g>
    <g id="patch_31">
     <path d="M 531.880781 104.154141 
L 564.880781 104.154141 
L 564.880781 92.604141 
L 531.880781 92.604141 
z
" style="fill: #de6920; stroke: #ffffff; stroke-linejoin: miter"/>
    </g>
    <g id="text_19">
     <!-- 8 -->
     <g style="fill: #262626" transform="translate(578.080781 104.154141) scale(0.165 -0.165)">
      <use xlink:href="#DejaVuSerif-38"/>
     </g>
    </g>
   </g>
  </g>
 </g>
 <defs>
  <clipPath id="pd48c92e1a4">
   <rect x="66.615" y="26.877187" width="550.47" height="204.972"/>
  </clipPath>
 </defs>
</svg>
